<?xml version="1.0" encoding="utf-8"?>
<!-- Generator: Adobe Illustrator 22.1.0, SVG Export Plug-In . SVG Version: 6.00 Build 0)  -->
<svg version="1.1" id="Layer_1" xmlns="http://www.w3.org/2000/svg" xmlns:xlink="http://www.w3.org/1999/xlink" x="0px" y="0px"
	 viewBox="0 0 694 501" style="enable-background:new 0 0 694 501;" xml:space="preserve">
<style type="text/css">
	.st0{opacity:0.75;}
	.st1{fill:#73BDFF;}
	.st2{fill:#1E1E1E;}
	.st3{fill:#B6E700;}
	.st4{fill:#E75D00;}
	.st5{fill:#1A2E00;}
	.st6{fill:#D09100;}
	.st7{fill:#D000CA;}
	.st8{fill:#B91D00;}
	.st9{fill:#001AD0;}
	.st10{fill:#00BFE7;}
	.st11{fill:#AAE700;}
	.st12{fill:#E7AE00;}
</style>
<g id="NS">
	<g class="st0">
		<polygon class="st1" points="598.9,366.8 598.9,352.9 610.9,346 622.9,352.9 622.9,366.8 610.9,373.7 		"/>
		<path class="st2" d="M610.9,346.3l11.7,6.8v13.5l-11.7,6.8l-11.7-6.8v-13.5L610.9,346.3 M610.9,345.7l-12.2,7.1v14.1l12.2,7.1
			l12.2-7.1v-14.1L610.9,345.7L610.9,345.7z"/>
	</g>
	<g class="st0">
		<polygon class="st1" points="611.2,345.6 611.2,331.7 623.1,324.8 635.1,331.7 635.1,345.6 623.1,352.5 		"/>
		<path class="st2" d="M623.1,325.1l11.7,6.8v13.5l-11.7,6.8l-11.7-6.8v-13.5L623.1,325.1 M623.1,324.5l-12.2,7.1v14.1l12.2,7.1
			l12.2-7.1v-14.1L623.1,324.5L623.1,324.5z"/>
	</g>
	<g class="st0">
		<polygon class="st1" points="586.7,388 586.7,374.1 598.7,367.2 610.7,374.1 610.7,388 598.7,394.9 		"/>
		<path class="st2" d="M598.7,367.5l11.7,6.8v13.5l-11.7,6.8l-11.7-6.8v-13.5L598.7,367.5 M598.7,366.9l-12.2,7.1v14.1l12.2,7.1
			l12.2-7.1V374L598.7,366.9L598.7,366.9z"/>
	</g>
	<g class="st0">
		<polygon class="st1" points="574.5,366.8 574.5,352.9 586.5,346 598.5,352.9 598.5,366.8 586.5,373.7 		"/>
		<path class="st2" d="M586.5,346.3l11.7,6.8v13.5l-11.7,6.8l-11.7-6.8v-13.5L586.5,346.3 M586.5,345.7l-12.2,7.1v14.1l12.2,7.1
			l12.2-7.1v-14.1L586.5,345.7L586.5,345.7z"/>
	</g>
	<g class="st0">
		<polygon class="st1" points="586.7,345.6 586.7,331.7 598.7,324.8 610.7,331.7 610.7,345.6 598.7,352.5 		"/>
		<path class="st2" d="M598.7,325.1l11.7,6.8v13.5l-11.7,6.8l-11.7-6.8v-13.5L598.7,325.1 M598.7,324.5l-12.2,7.1v14.1l12.2,7.1
			l12.2-7.1v-14.1L598.7,324.5L598.7,324.5z"/>
	</g>
	<g class="st0">
		<polygon class="st1" points="562.3,388 562.3,374.1 574.3,367.2 586.3,374.1 586.3,388 574.3,394.9 		"/>
		<path class="st2" d="M574.3,367.5l11.7,6.8v13.5l-11.7,6.8l-11.7-6.8v-13.5L574.3,367.5 M574.3,366.9L562,374v14.1l12.2,7.1
			l12.2-7.1V374L574.3,366.9L574.3,366.9z"/>
	</g>
	<g class="st0">
		<polygon class="st1" points="550.1,366.8 550.1,352.9 562.1,346 574,352.9 574,366.8 562.1,373.7 		"/>
		<path class="st2" d="M562.1,346.3l11.7,6.8v13.5l-11.7,6.8l-11.7-6.8v-13.5L562.1,346.3 M562.1,345.7l-12.2,7.1v14.1l12.2,7.1
			l12.2-7.1v-14.1L562.1,345.7L562.1,345.7z"/>
	</g>
	<g class="st0">
		<polygon class="st1" points="537.9,388 537.9,374.1 549.8,367.2 561.8,374.1 561.8,388 549.8,394.9 		"/>
		<path class="st2" d="M549.8,367.5l11.7,6.8v13.5l-11.7,6.8l-11.7-6.8v-13.5L549.8,367.5 M549.8,366.9l-12.2,7.1v14.1l12.2,7.1
			l12.2-7.1V374L549.8,366.9L549.8,366.9z"/>
	</g>
</g>
<g id="NL">
	<g class="st0">
		<polygon class="st3" points="647.8,282 647.8,268.2 659.8,261.3 671.8,268.2 671.8,282 659.8,288.9 		"/>
		<path class="st2" d="M659.8,261.6l11.7,6.8v13.5l-11.7,6.8l-11.7-6.8v-13.5L659.8,261.6 M659.8,261l-12.2,7.1v14.1l12.2,7.1
			l12.2-7.1V268L659.8,261L659.8,261z"/>
	</g>
	<g class="st0">
		<polygon class="st3" points="635.6,303.2 635.6,289.4 647.6,282.5 659.6,289.4 659.6,303.2 647.6,310.1 		"/>
		<path class="st2" d="M647.6,282.7l11.7,6.8v13.5l-11.7,6.8l-11.7-6.8v-13.5L647.6,282.7 M647.6,282.2l-12.2,7.1v14.1l12.2,7.1
			l12.2-7.1v-14.1L647.6,282.2L647.6,282.2z"/>
	</g>
	<g class="st0">
		<polygon class="st3" points="623.4,282 623.4,268.2 635.4,261.3 647.3,268.2 647.3,282 635.4,288.9 		"/>
		<path class="st2" d="M635.4,261.6l11.7,6.8v13.5l-11.7,6.8l-11.7-6.8v-13.5L635.4,261.6 M635.4,261l-12.2,7.1v14.1l12.2,7.1
			l12.2-7.1V268L635.4,261L635.4,261z"/>
	</g>
	<g class="st0">
		<polygon class="st3" points="611.2,303.2 611.2,289.4 623.1,282.5 635.1,289.4 635.1,303.2 623.1,310.1 		"/>
		<path class="st2" d="M623.1,282.7l11.7,6.8v13.5l-11.7,6.8l-11.7-6.8v-13.5L623.1,282.7 M623.1,282.2l-12.2,7.1v14.1l12.2,7.1
			l12.2-7.1v-14.1L623.1,282.2L623.1,282.2z"/>
	</g>
	<g class="st0">
		<polygon class="st3" points="598.9,282 598.9,268.2 610.9,261.3 622.9,268.2 622.9,282 610.9,288.9 		"/>
		<path class="st2" d="M610.9,261.6l11.7,6.8v13.5l-11.7,6.8l-11.7-6.8v-13.5L610.9,261.6 M610.9,261l-12.2,7.1v14.1l12.2,7.1
			l12.2-7.1V268L610.9,261L610.9,261z"/>
	</g>
	<g class="st0">
		<polygon class="st3" points="611.2,260.8 611.2,247 623.1,240.1 635.1,247 635.1,260.8 623.1,267.8 		"/>
		<path class="st2" d="M623.1,240.4l11.7,6.8v13.5l-11.7,6.8l-11.7-6.8v-13.5L623.1,240.4 M623.1,239.8l-12.2,7.1V261l12.2,7.1
			l12.2-7.1v-14.1L623.1,239.8L623.1,239.8z"/>
	</g>
	<g class="st0">
		<polygon class="st3" points="598.9,239.6 598.9,225.8 610.9,218.9 622.9,225.8 622.9,239.6 610.9,246.6 		"/>
		<path class="st2" d="M610.9,219.2l11.7,6.8v13.5l-11.7,6.8l-11.7-6.8V226L610.9,219.2 M610.9,218.6l-12.2,7.1v14.1l12.2,7.1
			l12.2-7.1v-14.1L610.9,218.6L610.9,218.6z"/>
	</g>
	<g class="st0">
		<polygon class="st3" points="586.7,303.2 586.7,289.4 598.7,282.5 610.7,289.4 610.7,303.2 598.7,310.1 		"/>
		<path class="st2" d="M598.7,282.7l11.7,6.8v13.5l-11.7,6.8l-11.7-6.8v-13.5L598.7,282.7 M598.7,282.2l-12.2,7.1v14.1l12.2,7.1
			l12.2-7.1v-14.1L598.7,282.2L598.7,282.2z"/>
	</g>
	<g class="st0">
		<polygon class="st3" points="586.7,260.8 586.7,247 598.7,240.1 610.7,247 610.7,260.8 598.7,267.8 		"/>
		<path class="st2" d="M598.7,240.4l11.7,6.8v13.5l-11.7,6.8l-11.7-6.8v-13.5L598.7,240.4 M598.7,239.8l-12.2,7.1V261l12.2,7.1
			l12.2-7.1v-14.1L598.7,239.8L598.7,239.8z"/>
	</g>
	<g class="st0">
		<polygon class="st3" points="574.5,239.6 574.5,225.8 586.5,218.9 598.5,225.8 598.5,239.6 586.5,246.6 		"/>
		<path class="st2" d="M586.5,219.2l11.7,6.8v13.5l-11.7,6.8l-11.7-6.8V226L586.5,219.2 M586.5,218.6l-12.2,7.1v14.1l12.2,7.1
			l12.2-7.1v-14.1L586.5,218.6L586.5,218.6z"/>
	</g>
	<g class="st0">
		<polygon class="st3" points="550.1,282 550.1,268.2 562.1,261.3 574,268.2 574,282 562.1,288.9 		"/>
		<path class="st2" d="M562.1,261.6l11.7,6.8v13.5l-11.7,6.8l-11.7-6.8v-13.5L562.1,261.6 M562.1,261l-12.2,7.1v14.1l12.2,7.1
			l12.2-7.1V268L562.1,261L562.1,261z"/>
	</g>
	<g class="st0">
		<polygon class="st3" points="562.3,260.8 562.3,247 574.3,240.1 586.3,247 586.3,260.8 574.3,267.8 		"/>
		<path class="st2" d="M574.3,240.4l11.7,6.8v13.5l-11.7,6.8l-11.7-6.8v-13.5L574.3,240.4 M574.3,239.8l-12.2,7.1V261l12.2,7.1
			l12.2-7.1v-14.1L574.3,239.8L574.3,239.8z"/>
	</g>
	<g class="st0">
		<polygon class="st3" points="550.1,239.6 550.1,225.8 562.1,218.9 574,225.8 574,239.6 562.1,246.6 		"/>
		<path class="st2" d="M562.1,219.2l11.7,6.8v13.5l-11.7,6.8l-11.7-6.8V226L562.1,219.2 M562.1,218.6l-12.2,7.1v14.1l12.2,7.1
			l12.2-7.1v-14.1L562.1,218.6L562.1,218.6z"/>
	</g>
	<g class="st0">
		<polygon class="st3" points="525.6,282 525.6,268.2 537.6,261.3 549.6,268.2 549.6,282 537.6,288.9 		"/>
		<path class="st2" d="M537.6,261.6l11.7,6.8v13.5l-11.7,6.8l-11.7-6.8v-13.5L537.6,261.6 M537.6,261l-12.2,7.1v14.1l12.2,7.1
			l12.2-7.1V268L537.6,261L537.6,261z"/>
	</g>
	<g class="st0">
		<polygon class="st3" points="537.9,260.8 537.9,247 549.8,240.1 561.8,247 561.8,260.8 549.8,267.8 		"/>
		<path class="st2" d="M549.8,240.4l11.7,6.8v13.5l-11.7,6.8l-11.7-6.8v-13.5L549.8,240.4 M549.8,239.8l-12.2,7.1V261l12.2,7.1
			l12.2-7.1v-14.1L549.8,239.8L549.8,239.8z"/>
	</g>
	<g class="st0">
		<polygon class="st3" points="525.6,239.6 525.6,225.8 537.6,218.9 549.6,225.8 549.6,239.6 537.6,246.6 		"/>
		<path class="st2" d="M537.6,219.2l11.7,6.8v13.5l-11.7,6.8l-11.7-6.8V226L537.6,219.2 M537.6,218.6l-12.2,7.1v14.1l12.2,7.1
			l12.2-7.1v-14.1L537.6,218.6L537.6,218.6z"/>
	</g>
	<g class="st0">
		<polygon class="st3" points="537.9,218.5 537.9,204.6 549.8,197.7 561.8,204.6 561.8,218.5 549.8,225.4 		"/>
		<path class="st2" d="M549.8,198l11.7,6.8v13.5l-11.7,6.8l-11.7-6.8v-13.5L549.8,198 M549.8,197.4l-12.2,7.1v14.1l12.2,7.1
			l12.2-7.1v-14.1L549.8,197.4L549.8,197.4z"/>
	</g>
	<g class="st0">
		<polygon class="st3" points="513.4,260.8 513.4,247 525.4,240.1 537.4,247 537.4,260.8 525.4,267.8 		"/>
		<path class="st2" d="M525.4,240.4l11.7,6.8v13.5l-11.7,6.8l-11.7-6.8v-13.5L525.4,240.4 M525.4,239.8l-12.2,7.1V261l12.2,7.1
			l12.2-7.1v-14.1L525.4,239.8L525.4,239.8z"/>
	</g>
	<g class="st0">
		<polygon class="st3" points="501.2,239.6 501.2,225.8 513.2,218.9 525.2,225.8 525.2,239.6 513.2,246.6 		"/>
		<path class="st2" d="M513.2,219.2l11.7,6.8v13.5l-11.7,6.8l-11.7-6.8V226L513.2,219.2 M513.2,218.6l-12.2,7.1v14.1l12.2,7.1
			l12.2-7.1v-14.1L513.2,218.6L513.2,218.6z"/>
	</g>
</g>
<g id="QC">
	<g class="st0">
		<polygon class="st4" points="574.5,282 574.5,268.2 586.5,261.3 598.5,268.2 598.5,282 586.5,288.9 		"/>
		<path class="st2" d="M586.5,261.6l11.7,6.8v13.5l-11.7,6.8l-11.7-6.8v-13.5L586.5,261.6 M586.5,261l-12.2,7.1v14.1l12.2,7.1
			l12.2-7.1V268L586.5,261L586.5,261z"/>
	</g>
	<g class="st0">
		<polygon class="st4" points="550.1,324.4 550.1,310.6 562.1,303.6 574,310.6 574,324.4 562.1,331.3 		"/>
		<path class="st2" d="M562.1,303.9l11.7,6.8v13.5l-11.7,6.8l-11.7-6.8v-13.5L562.1,303.9 M562.1,303.4l-12.2,7.1v14.1l12.2,7.1
			l12.2-7.1v-14.1L562.1,303.4L562.1,303.4z"/>
	</g>
	<g class="st0">
		<polygon class="st4" points="562.3,303.2 562.3,289.4 574.3,282.5 586.3,289.4 586.3,303.2 574.3,310.1 		"/>
		<path class="st2" d="M574.3,282.7l11.7,6.8v13.5l-11.7,6.8l-11.7-6.8v-13.5L574.3,282.7 M574.3,282.2l-12.2,7.1v14.1l12.2,7.1
			l12.2-7.1v-14.1L574.3,282.2L574.3,282.2z"/>
	</g>
	<g class="st0">
		<polygon class="st4" points="525.6,366.8 525.6,352.9 537.6,346 549.6,352.9 549.6,366.8 537.6,373.7 		"/>
		<path class="st2" d="M537.6,346.3l11.7,6.8v13.5l-11.7,6.8l-11.7-6.8v-13.5L537.6,346.3 M537.6,345.7l-12.2,7.1v14.1l12.2,7.1
			l12.2-7.1v-14.1L537.6,345.7L537.6,345.7z"/>
	</g>
	<g class="st0">
		<polygon class="st4" points="537.9,345.6 537.9,331.7 549.8,324.8 561.8,331.7 561.8,345.6 549.8,352.5 		"/>
		<path class="st2" d="M549.8,325.1l11.7,6.8v13.5l-11.7,6.8l-11.7-6.8v-13.5L549.8,325.1 M549.8,324.5l-12.2,7.1v14.1l12.2,7.1
			l12.2-7.1v-14.1L549.8,324.5L549.8,324.5z"/>
	</g>
	<g class="st0">
		<polygon class="st4" points="525.6,324.4 525.6,310.6 537.6,303.6 549.6,310.6 549.6,324.4 537.6,331.3 		"/>
		<path class="st2" d="M537.6,303.9l11.7,6.8v13.5l-11.7,6.8l-11.7-6.8v-13.5L537.6,303.9 M537.6,303.4l-12.2,7.1v14.1l12.2,7.1
			l12.2-7.1v-14.1L537.6,303.4L537.6,303.4z"/>
	</g>
	<g class="st0">
		<polygon class="st4" points="537.9,303.2 537.9,289.4 549.8,282.5 561.8,289.4 561.8,303.2 549.8,310.1 		"/>
		<path class="st2" d="M549.8,282.7l11.7,6.8v13.5l-11.7,6.8l-11.7-6.8v-13.5L549.8,282.7 M549.8,282.2l-12.2,7.1v14.1l12.2,7.1
			l12.2-7.1v-14.1L549.8,282.2L549.8,282.2z"/>
	</g>
	<g class="st0">
		<polygon class="st4" points="513.4,388 513.4,374.1 525.4,367.2 537.4,374.1 537.4,388 525.4,394.9 		"/>
		<path class="st2" d="M525.4,367.5l11.7,6.8v13.5l-11.7,6.8l-11.7-6.8v-13.5L525.4,367.5 M525.4,366.9l-12.2,7.1v14.1l12.2,7.1
			l12.2-7.1V374L525.4,366.9L525.4,366.9z"/>
	</g>
	<g class="st0">
		<polygon class="st4" points="501.2,366.8 501.2,352.9 513.2,346 525.2,352.9 525.2,366.8 513.2,373.7 		"/>
		<path class="st2" d="M513.2,346.3l11.7,6.8v13.5l-11.7,6.8l-11.7-6.8v-13.5L513.2,346.3 M513.2,345.7l-12.2,7.1v14.1l12.2,7.1
			l12.2-7.1v-14.1L513.2,345.7L513.2,345.7z"/>
	</g>
	<g class="st0">
		<polygon class="st4" points="513.4,345.6 513.4,331.7 525.4,324.8 537.4,331.7 537.4,345.6 525.4,352.5 		"/>
		<path class="st2" d="M525.4,325.1l11.7,6.8v13.5l-11.7,6.8l-11.7-6.8v-13.5L525.4,325.1 M525.4,324.5l-12.2,7.1v14.1l12.2,7.1
			l12.2-7.1v-14.1L525.4,324.5L525.4,324.5z"/>
	</g>
	<g class="st0">
		<polygon class="st4" points="501.2,324.4 501.2,310.6 513.2,303.6 525.2,310.6 525.2,324.4 513.2,331.3 		"/>
		<path class="st2" d="M513.2,303.9l11.7,6.8v13.5l-11.7,6.8l-11.7-6.8v-13.5L513.2,303.9 M513.2,303.4l-12.2,7.1v14.1l12.2,7.1
			l12.2-7.1v-14.1L513.2,303.4L513.2,303.4z"/>
	</g>
	<g class="st0">
		<polygon class="st4" points="513.4,303.2 513.4,289.4 525.4,282.5 537.4,289.4 537.4,303.2 525.4,310.1 		"/>
		<path class="st2" d="M525.4,282.7l11.7,6.8v13.5l-11.7,6.8l-11.7-6.8v-13.5L525.4,282.7 M525.4,282.2l-12.2,7.1v14.1l12.2,7.1
			l12.2-7.1v-14.1L525.4,282.2L525.4,282.2z"/>
	</g>
	<g class="st0">
		<polygon class="st4" points="501.2,282 501.2,268.2 513.2,261.3 525.2,268.2 525.2,282 513.2,288.9 		"/>
		<path class="st2" d="M513.2,261.6l11.7,6.8v13.5l-11.7,6.8l-11.7-6.8v-13.5L513.2,261.6 M513.2,261L501,268v14.1l12.2,7.1
			l12.2-7.1V268L513.2,261L513.2,261z"/>
	</g>
	<g class="st0">
		<polygon class="st4" points="476.8,409.1 476.8,395.3 488.7,388.4 500.7,395.3 500.7,409.1 488.7,416.1 		"/>
		<path class="st2" d="M488.7,388.7l11.7,6.8V409l-11.7,6.8L477,409v-13.5L488.7,388.7 M488.7,388.1l-12.2,7.1v14.1l12.2,7.1
			l12.2-7.1v-14.1L488.7,388.1L488.7,388.1z"/>
	</g>
	<g class="st0">
		<polygon class="st4" points="489,388 489,374.1 501,367.2 512.9,374.1 512.9,388 501,394.9 		"/>
		<path class="st2" d="M501,367.5l11.7,6.8v13.5l-11.7,6.8l-11.7-6.8v-13.5L501,367.5 M501,366.9l-12.2,7.1v14.1l12.2,7.1l12.2-7.1
			V374L501,366.9L501,366.9z"/>
	</g>
	<g class="st0">
		<polygon class="st4" points="476.8,366.8 476.8,352.9 488.7,346 500.7,352.9 500.7,366.8 488.7,373.7 		"/>
		<path class="st2" d="M488.7,346.3l11.7,6.8v13.5l-11.7,6.8l-11.7-6.8v-13.5L488.7,346.3 M488.7,345.7l-12.2,7.1v14.1l12.2,7.1
			l12.2-7.1v-14.1L488.7,345.7L488.7,345.7z"/>
	</g>
	<g class="st0">
		<polygon class="st4" points="489,345.6 489,331.7 501,324.8 512.9,331.7 512.9,345.6 501,352.5 		"/>
		<path class="st2" d="M501,325.1l11.7,6.8v13.5l-11.7,6.8l-11.7-6.8v-13.5L501,325.1 M501,324.5l-12.2,7.1v14.1l12.2,7.1l12.2-7.1
			v-14.1L501,324.5L501,324.5z"/>
	</g>
	<g class="st0">
		<polygon class="st4" points="476.8,324.4 476.8,310.6 488.7,303.6 500.7,310.6 500.7,324.4 488.7,331.3 		"/>
		<path class="st2" d="M488.7,303.9l11.7,6.8v13.5l-11.7,6.8l-11.7-6.8v-13.5L488.7,303.9 M488.7,303.4l-12.2,7.1v14.1l12.2,7.1
			l12.2-7.1v-14.1L488.7,303.4L488.7,303.4z"/>
	</g>
	<g class="st0">
		<polygon class="st4" points="489,303.2 489,289.4 501,282.5 512.9,289.4 512.9,303.2 501,310.1 		"/>
		<path class="st2" d="M501,282.7l11.7,6.8v13.5l-11.7,6.8l-11.7-6.8v-13.5L501,282.7 M501,282.2l-12.2,7.1v14.1l12.2,7.1l12.2-7.1
			v-14.1L501,282.2L501,282.2z"/>
	</g>
	<g class="st0">
		<polygon class="st4" points="476.8,282 476.8,268.2 488.7,261.3 500.7,268.2 500.7,282 488.7,288.9 		"/>
		<path class="st2" d="M488.7,261.6l11.7,6.8v13.5l-11.7,6.8l-11.7-6.8v-13.5L488.7,261.6 M488.7,261l-12.2,7.1v14.1l12.2,7.1
			l12.2-7.1V268L488.7,261L488.7,261z"/>
	</g>
	<g class="st0">
		<polygon class="st4" points="489,260.8 489,247 501,240.1 512.9,247 512.9,260.8 501,267.8 		"/>
		<path class="st2" d="M501,240.4l11.7,6.8v13.5l-11.7,6.8l-11.7-6.8v-13.5L501,240.4 M501,239.8l-12.2,7.1V261L501,268l12.2-7.1
			v-14.1L501,239.8L501,239.8z"/>
	</g>
	<g class="st0">
		<polygon class="st4" points="476.8,239.6 476.8,225.8 488.7,218.9 500.7,225.8 500.7,239.6 488.7,246.6 		"/>
		<path class="st2" d="M488.7,219.2l11.7,6.8v13.5l-11.7,6.8l-11.7-6.8V226L488.7,219.2 M488.7,218.6l-12.2,7.1v14.1l12.2,7.1
			l12.2-7.1v-14.1L488.7,218.6L488.7,218.6z"/>
	</g>
	<g class="st0">
		<polygon class="st4" points="489,218.5 489,204.6 501,197.7 512.9,204.6 512.9,218.5 501,225.4 		"/>
		<path class="st2" d="M501,198l11.7,6.8v13.5l-11.7,6.8l-11.7-6.8v-13.5L501,198 M501,197.4l-12.2,7.1v14.1l12.2,7.1l12.2-7.1
			v-14.1L501,197.4L501,197.4z"/>
	</g>
	<g class="st0">
		<polygon class="st4" points="464.5,388 464.5,374.1 476.5,367.2 488.5,374.1 488.5,388 476.5,394.9 		"/>
		<path class="st2" d="M476.5,367.5l11.7,6.8v13.5l-11.7,6.8l-11.7-6.8v-13.5L476.5,367.5 M476.5,366.9l-12.2,7.1v14.1l12.2,7.1
			l12.2-7.1V374L476.5,366.9L476.5,366.9z"/>
	</g>
	<g class="st0">
		<polygon class="st4" points="452.3,366.8 452.3,352.9 464.3,346 476.3,352.9 476.3,366.8 464.3,373.7 		"/>
		<path class="st2" d="M464.3,346.3l11.7,6.8v13.5l-11.7,6.8l-11.7-6.8v-13.5L464.3,346.3 M464.3,345.7l-12.2,7.1v14.1l12.2,7.1
			l12.2-7.1v-14.1L464.3,345.7L464.3,345.7z"/>
	</g>
	<g class="st0">
		<polygon class="st4" points="464.5,345.6 464.5,331.7 476.5,324.8 488.5,331.7 488.5,345.6 476.5,352.5 		"/>
		<path class="st2" d="M476.5,325.1l11.7,6.8v13.5l-11.7,6.8l-11.7-6.8v-13.5L476.5,325.1 M476.5,324.5l-12.2,7.1v14.1l12.2,7.1
			l12.2-7.1v-14.1L476.5,324.5L476.5,324.5z"/>
	</g>
	<g class="st0">
		<polygon class="st4" points="452.3,324.4 452.3,310.6 464.3,303.6 476.3,310.6 476.3,324.4 464.3,331.3 		"/>
		<path class="st2" d="M464.3,303.9l11.7,6.8v13.5l-11.7,6.8l-11.7-6.8v-13.5L464.3,303.9 M464.3,303.4l-12.2,7.1v14.1l12.2,7.1
			l12.2-7.1v-14.1L464.3,303.4L464.3,303.4z"/>
	</g>
	<g class="st0">
		<polygon class="st4" points="464.5,303.2 464.5,289.4 476.5,282.5 488.5,289.4 488.5,303.2 476.5,310.1 		"/>
		<path class="st2" d="M476.5,282.7l11.7,6.8v13.5l-11.7,6.8l-11.7-6.8v-13.5L476.5,282.7 M476.5,282.2l-12.2,7.1v14.1l12.2,7.1
			l12.2-7.1v-14.1L476.5,282.2L476.5,282.2z"/>
	</g>
	<g class="st0">
		<polygon class="st4" points="452.3,282 452.3,268.2 464.3,261.3 476.3,268.2 476.3,282 464.3,288.9 		"/>
		<path class="st2" d="M464.3,261.6l11.7,6.8v13.5l-11.7,6.8l-11.7-6.8v-13.5L464.3,261.6 M464.3,261l-12.2,7.1v14.1l12.2,7.1
			l12.2-7.1V268L464.3,261L464.3,261z"/>
	</g>
	<g class="st0">
		<polygon class="st4" points="464.5,260.8 464.5,247 476.5,240.1 488.5,247 488.5,260.8 476.5,267.8 		"/>
		<path class="st2" d="M476.5,240.4l11.7,6.8v13.5l-11.7,6.8l-11.7-6.8v-13.5L476.5,240.4 M476.5,239.8l-12.2,7.1V261l12.2,7.1
			l12.2-7.1v-14.1L476.5,239.8L476.5,239.8z"/>
	</g>
	<g class="st0">
		<polygon class="st4" points="452.3,239.6 452.3,225.8 464.3,218.9 476.3,225.8 476.3,239.6 464.3,246.6 		"/>
		<path class="st2" d="M464.3,219.2L476,226v13.5l-11.7,6.8l-11.7-6.8V226L464.3,219.2 M464.3,218.6l-12.2,7.1v14.1l12.2,7.1
			l12.2-7.1v-14.1L464.3,218.6L464.3,218.6z"/>
	</g>
	<g class="st0">
		<polygon class="st4" points="464.5,218.5 464.5,204.6 476.5,197.7 488.5,204.6 488.5,218.5 476.5,225.4 		"/>
		<path class="st2" d="M476.5,198l11.7,6.8v13.5l-11.7,6.8l-11.7-6.8v-13.5L476.5,198 M476.5,197.4l-12.2,7.1v14.1l12.2,7.1
			l12.2-7.1v-14.1L476.5,197.4L476.5,197.4z"/>
	</g>
	<g class="st0">
		<polygon class="st4" points="440.1,388 440.1,374.1 452.1,367.2 464.1,374.1 464.1,388 452.1,394.9 		"/>
		<path class="st2" d="M452.1,367.5l11.7,6.8v13.5l-11.7,6.8l-11.7-6.8v-13.5L452.1,367.5 M452.1,366.9l-12.2,7.1v14.1l12.2,7.1
			l12.2-7.1V374L452.1,366.9L452.1,366.9z"/>
	</g>
	<g class="st0">
		<polygon class="st4" points="427.9,366.8 427.9,352.9 439.9,346 451.9,352.9 451.9,366.8 439.9,373.7 		"/>
		<path class="st2" d="M439.9,346.3l11.7,6.8v13.5l-11.7,6.8l-11.7-6.8v-13.5L439.9,346.3 M439.9,345.7l-12.2,7.1v14.1l12.2,7.1
			l12.2-7.1v-14.1L439.9,345.7L439.9,345.7z"/>
	</g>
	<g class="st0">
		<polygon class="st4" points="440.1,345.6 440.1,331.7 452.1,324.8 464.1,331.7 464.1,345.6 452.1,352.5 		"/>
		<path class="st2" d="M452.1,325.1l11.7,6.8v13.5l-11.7,6.8l-11.7-6.8v-13.5L452.1,325.1 M452.1,324.5l-12.2,7.1v14.1l12.2,7.1
			l12.2-7.1v-14.1L452.1,324.5L452.1,324.5z"/>
	</g>
	<g class="st0">
		<polygon class="st4" points="427.9,324.4 427.9,310.6 439.9,303.6 451.9,310.6 451.9,324.4 439.9,331.3 		"/>
		<path class="st2" d="M439.9,303.9l11.7,6.8v13.5l-11.7,6.8l-11.7-6.8v-13.5L439.9,303.9 M439.9,303.4l-12.2,7.1v14.1l12.2,7.1
			l12.2-7.1v-14.1L439.9,303.4L439.9,303.4z"/>
	</g>
	<g class="st0">
		<polygon class="st4" points="440.1,303.2 440.1,289.4 452.1,282.5 464.1,289.4 464.1,303.2 452.1,310.1 		"/>
		<path class="st2" d="M452.1,282.7l11.7,6.8v13.5l-11.7,6.8l-11.7-6.8v-13.5L452.1,282.7 M452.1,282.2l-12.2,7.1v14.1l12.2,7.1
			l12.2-7.1v-14.1L452.1,282.2L452.1,282.2z"/>
	</g>
	<g class="st0">
		<polygon class="st4" points="427.9,282 427.9,268.2 439.9,261.3 451.9,268.2 451.9,282 439.9,288.9 		"/>
		<path class="st2" d="M439.9,261.6l11.7,6.8v13.5l-11.7,6.8l-11.7-6.8v-13.5L439.9,261.6 M439.9,261l-12.2,7.1v14.1l12.2,7.1
			l12.2-7.1V268L439.9,261L439.9,261z"/>
	</g>
	<g class="st0">
		<polygon class="st4" points="440.1,260.8 440.1,247 452.1,240.1 464.1,247 464.1,260.8 452.1,267.8 		"/>
		<path class="st2" d="M452.1,240.4l11.7,6.8v13.5l-11.7,6.8l-11.7-6.8v-13.5L452.1,240.4 M452.1,239.8l-12.2,7.1V261l12.2,7.1
			l12.2-7.1v-14.1L452.1,239.8L452.1,239.8z"/>
	</g>
	<g class="st0">
		<polygon class="st4" points="427.9,239.6 427.9,225.8 439.9,218.9 451.9,225.8 451.9,239.6 439.9,246.6 		"/>
		<path class="st2" d="M439.9,219.2l11.7,6.8v13.5l-11.7,6.8l-11.7-6.8V226L439.9,219.2 M439.9,218.6l-12.2,7.1v14.1l12.2,7.1
			l12.2-7.1v-14.1L439.9,218.6L439.9,218.6z"/>
	</g>
	<g class="st0">
		<polygon class="st4" points="440.1,218.5 440.1,204.6 452.1,197.7 464.1,204.6 464.1,218.5 452.1,225.4 		"/>
		<path class="st2" d="M452.1,198l11.7,6.8v13.5l-11.7,6.8l-11.7-6.8v-13.5L452.1,198 M452.1,197.4l-12.2,7.1v14.1l12.2,7.1
			l12.2-7.1v-14.1L452.1,197.4L452.1,197.4z"/>
	</g>
	<g class="st0">
		<polygon class="st4" points="427.9,197.3 427.9,183.4 439.9,176.5 451.9,183.4 451.9,197.3 439.9,204.2 		"/>
		<path class="st2" d="M439.9,176.8l11.7,6.8v13.5l-11.7,6.8l-11.7-6.8v-13.5L439.9,176.8 M439.9,176.2l-12.2,7.1v14.1l12.2,7.1
			l12.2-7.1v-14.1L439.9,176.2L439.9,176.2z"/>
	</g>
	<g class="st0">
		<polygon class="st4" points="415.7,388 415.7,374.1 427.7,367.2 439.6,374.1 439.6,388 427.7,394.9 		"/>
		<path class="st2" d="M427.7,367.5l11.7,6.8v13.5l-11.7,6.8l-11.7-6.8v-13.5L427.7,367.5 M427.7,366.9l-12.2,7.1v14.1l12.2,7.1
			l12.2-7.1V374L427.7,366.9L427.7,366.9z"/>
	</g>
	<g class="st0">
		<polygon class="st4" points="415.7,303.2 415.7,289.4 427.7,282.5 439.6,289.4 439.6,303.2 427.7,310.1 		"/>
		<path class="st2" d="M427.7,282.7l11.7,6.8v13.5l-11.7,6.8l-11.7-6.8v-13.5L427.7,282.7 M427.7,282.2l-12.2,7.1v14.1l12.2,7.1
			l12.2-7.1v-14.1L427.7,282.2L427.7,282.2z"/>
	</g>
	<g class="st0">
		<polygon class="st4" points="415.7,260.8 415.7,247 427.7,240.1 439.6,247 439.6,260.8 427.7,267.8 		"/>
		<path class="st2" d="M427.7,240.4l11.7,6.8v13.5l-11.7,6.8l-11.7-6.8v-13.5L427.7,240.4 M427.7,239.8l-12.2,7.1V261l12.2,7.1
			l12.2-7.1v-14.1L427.7,239.8L427.7,239.8z"/>
	</g>
	<g class="st0">
		<polygon class="st4" points="403.5,239.6 403.5,225.8 415.4,218.9 427.4,225.8 427.4,239.6 415.4,246.6 		"/>
		<path class="st2" d="M415.4,219.2l11.7,6.8v13.5l-11.7,6.8l-11.7-6.8V226L415.4,219.2 M415.4,218.6l-12.2,7.1v14.1l12.2,7.1
			l12.2-7.1v-14.1L415.4,218.6L415.4,218.6z"/>
	</g>
	<g class="st0">
		<polygon class="st4" points="415.7,218.5 415.7,204.6 427.7,197.7 439.6,204.6 439.6,218.5 427.7,225.4 		"/>
		<path class="st2" d="M427.7,198l11.7,6.8v13.5l-11.7,6.8l-11.7-6.8v-13.5L427.7,198 M427.7,197.4l-12.2,7.1v14.1l12.2,7.1
			l12.2-7.1v-14.1L427.7,197.4L427.7,197.4z"/>
	</g>
	<g class="st0">
		<polygon class="st4" points="403.5,197.3 403.5,183.4 415.4,176.5 427.4,183.4 427.4,197.3 415.4,204.2 		"/>
		<path class="st2" d="M415.4,176.8l11.7,6.8v13.5l-11.7,6.8l-11.7-6.8v-13.5L415.4,176.8 M415.4,176.2l-12.2,7.1v14.1l12.2,7.1
			l12.2-7.1v-14.1L415.4,176.2L415.4,176.2z"/>
	</g>
</g>
<g id="ON">
	<g class="st0">
		<polygon class="st5" points="452.3,451.5 452.3,437.7 464.3,430.8 476.3,437.7 476.3,451.5 464.3,458.4 		"/>
		<path class="st2" d="M464.3,431l11.7,6.8v13.5l-11.7,6.8l-11.7-6.8v-13.5L464.3,431 M464.3,430.5l-12.2,7.1v14.1l12.2,7.1
			l12.2-7.1v-14.1L464.3,430.5L464.3,430.5z"/>
	</g>
	<g class="st0">
		<polygon class="st5" points="464.5,430.3 464.5,416.5 476.5,409.6 488.5,416.5 488.5,430.3 476.5,437.2 		"/>
		<path class="st2" d="M476.5,409.9l11.7,6.8v13.5l-11.7,6.8l-11.7-6.8v-13.5L476.5,409.9 M476.5,409.3l-12.2,7.1v14.1l12.2,7.1
			l12.2-7.1v-14.1L476.5,409.3L476.5,409.3z"/>
	</g>
	<g class="st0">
		<polygon class="st5" points="452.3,409.1 452.3,395.3 464.3,388.4 476.3,395.3 476.3,409.1 464.3,416.1 		"/>
		<path class="st2" d="M464.3,388.7l11.7,6.8V409l-11.7,6.8l-11.7-6.8v-13.5L464.3,388.7 M464.3,388.1l-12.2,7.1v14.1l12.2,7.1
			l12.2-7.1v-14.1L464.3,388.1L464.3,388.1z"/>
	</g>
	<g class="st0">
		<polygon class="st5" points="427.9,451.5 427.9,437.7 439.9,430.8 451.9,437.7 451.9,451.5 439.9,458.4 		"/>
		<path class="st2" d="M439.9,431l11.7,6.8v13.5l-11.7,6.8l-11.7-6.8v-13.5L439.9,431 M439.9,430.5l-12.2,7.1v14.1l12.2,7.1
			l12.2-7.1v-14.1L439.9,430.5L439.9,430.5z"/>
	</g>
	<g class="st0">
		<polygon class="st5" points="440.1,430.3 440.1,416.5 452.1,409.6 464.1,416.5 464.1,430.3 452.1,437.2 		"/>
		<path class="st2" d="M452.1,409.9l11.7,6.8v13.5l-11.7,6.8l-11.7-6.8v-13.5L452.1,409.9 M452.1,409.3l-12.2,7.1v14.1l12.2,7.1
			l12.2-7.1v-14.1L452.1,409.3L452.1,409.3z"/>
	</g>
	<g class="st0">
		<polygon class="st5" points="427.9,409.1 427.9,395.3 439.9,388.4 451.9,395.3 451.9,409.1 439.9,416.1 		"/>
		<path class="st2" d="M439.9,388.7l11.7,6.8V409l-11.7,6.8l-11.7-6.8v-13.5L439.9,388.7 M439.9,388.1l-12.2,7.1v14.1l12.2,7.1
			l12.2-7.1v-14.1L439.9,388.1L439.9,388.1z"/>
	</g>
	<g class="st0">
		<polygon class="st5" points="415.7,430.3 415.7,416.5 427.7,409.6 439.6,416.5 439.6,430.3 427.7,437.2 		"/>
		<path class="st2" d="M427.7,409.9l11.7,6.8v13.5l-11.7,6.8l-11.7-6.8v-13.5L427.7,409.9 M427.7,409.3l-12.2,7.1v14.1l12.2,7.1
			l12.2-7.1v-14.1L427.7,409.3L427.7,409.3z"/>
	</g>
	<g class="st0">
		<polygon class="st5" points="403.5,409.1 403.5,395.3 415.4,388.4 427.4,395.3 427.4,409.1 415.4,416.1 		"/>
		<path class="st2" d="M415.4,388.7l11.7,6.8V409l-11.7,6.8l-11.7-6.8v-13.5L415.4,388.7 M415.4,388.1l-12.2,7.1v14.1l12.2,7.1
			l12.2-7.1v-14.1L415.4,388.1L415.4,388.1z"/>
	</g>
	<g class="st0">
		<polygon class="st5" points="403.5,366.8 403.5,352.9 415.4,346 427.4,352.9 427.4,366.8 415.4,373.7 		"/>
		<path class="st2" d="M415.4,346.3l11.7,6.8v13.5l-11.7,6.8l-11.7-6.8v-13.5L415.4,346.3 M415.4,345.7l-12.2,7.1v14.1l12.2,7.1
			l12.2-7.1v-14.1L415.4,345.7L415.4,345.7z"/>
	</g>
	<g class="st0">
		<polygon class="st5" points="415.7,345.6 415.7,331.7 427.7,324.8 439.6,331.7 439.6,345.6 427.7,352.5 		"/>
		<path class="st2" d="M427.7,325.1l11.7,6.8v13.5l-11.7,6.8l-11.7-6.8v-13.5L427.7,325.1 M427.7,324.5l-12.2,7.1v14.1l12.2,7.1
			l12.2-7.1v-14.1L427.7,324.5L427.7,324.5z"/>
	</g>
	<g class="st0">
		<polygon class="st5" points="379,409.1 379,395.3 391,388.4 403,395.3 403,409.1 391,416.1 		"/>
		<path class="st2" d="M391,388.7l11.7,6.8V409l-11.7,6.8l-11.7-6.8v-13.5L391,388.7 M391,388.1l-12.2,7.1v14.1l12.2,7.1l12.2-7.1
			v-14.1L391,388.1L391,388.1z"/>
	</g>
	<g class="st0">
		<polygon class="st5" points="391.2,388 391.2,374.1 403.2,367.2 415.2,374.1 415.2,388 403.2,394.9 		"/>
		<path class="st2" d="M403.2,367.5l11.7,6.8v13.5l-11.7,6.8l-11.7-6.8v-13.5L403.2,367.5 M403.2,366.9L391,374v14.1l12.2,7.1
			l12.2-7.1V374L403.2,366.9L403.2,366.9z"/>
	</g>
	<g class="st0">
		<polygon class="st5" points="379,366.8 379,352.9 391,346 403,352.9 403,366.8 391,373.7 		"/>
		<path class="st2" d="M391,346.3l11.7,6.8v13.5l-11.7,6.8l-11.7-6.8v-13.5L391,346.3 M391,345.7l-12.2,7.1v14.1L391,374l12.2-7.1
			v-14.1L391,345.7L391,345.7z"/>
	</g>
	<g class="st0">
		<polygon class="st5" points="391.2,345.6 391.2,331.7 403.2,324.8 415.2,331.7 415.2,345.6 403.2,352.5 		"/>
		<path class="st2" d="M403.2,325.1l11.7,6.8v13.5l-11.7,6.8l-11.7-6.8v-13.5L403.2,325.1 M403.2,324.5l-12.2,7.1v14.1l12.2,7.1
			l12.2-7.1v-14.1L403.2,324.5L403.2,324.5z"/>
	</g>
	<g class="st0">
		<polygon class="st5" points="379,324.4 379,310.6 391,303.6 403,310.6 403,324.4 391,331.3 		"/>
		<path class="st2" d="M391,303.9l11.7,6.8v13.5L391,331l-11.7-6.8v-13.5L391,303.9 M391,303.4l-12.2,7.1v14.1l12.2,7.1l12.2-7.1
			v-14.1L391,303.4L391,303.4z"/>
	</g>
	<g class="st0">
		<polygon class="st5" points="391.2,303.2 391.2,289.4 403.2,282.5 415.2,289.4 415.2,303.2 403.2,310.1 		"/>
		<path class="st2" d="M403.2,282.7l11.7,6.8v13.5l-11.7,6.8l-11.7-6.8v-13.5L403.2,282.7 M403.2,282.2l-12.2,7.1v14.1l12.2,7.1
			l12.2-7.1v-14.1L403.2,282.2L403.2,282.2z"/>
	</g>
	<g class="st0">
		<polygon class="st5" points="354.6,409.1 354.6,395.3 366.6,388.4 378.6,395.3 378.6,409.1 366.6,416.1 		"/>
		<path class="st2" d="M366.6,388.7l11.7,6.8V409l-11.7,6.8l-11.7-6.8v-13.5L366.6,388.7 M366.6,388.1l-12.2,7.1v14.1l12.2,7.1
			l12.2-7.1v-14.1L366.6,388.1L366.6,388.1z"/>
	</g>
	<g class="st0">
		<polygon class="st5" points="366.8,388 366.8,374.1 378.8,367.2 390.8,374.1 390.8,388 378.8,394.9 		"/>
		<path class="st2" d="M378.8,367.5l11.7,6.8v13.5l-11.7,6.8l-11.7-6.8v-13.5L378.8,367.5 M378.8,366.9l-12.2,7.1v14.1l12.2,7.1
			l12.2-7.1V374L378.8,366.9L378.8,366.9z"/>
	</g>
	<g class="st0">
		<polygon class="st5" points="354.6,366.8 354.6,352.9 366.6,346 378.6,352.9 378.6,366.8 366.6,373.7 		"/>
		<path class="st2" d="M366.6,346.3l11.7,6.8v13.5l-11.7,6.8l-11.7-6.8v-13.5L366.6,346.3 M366.6,345.7l-12.2,7.1v14.1l12.2,7.1
			l12.2-7.1v-14.1L366.6,345.7L366.6,345.7z"/>
	</g>
	<g class="st0">
		<polygon class="st5" points="366.8,345.6 366.8,331.7 378.8,324.8 390.8,331.7 390.8,345.6 378.8,352.5 		"/>
		<path class="st2" d="M378.8,325.1l11.7,6.8v13.5l-11.7,6.8l-11.7-6.8v-13.5L378.8,325.1 M378.8,324.5l-12.2,7.1v14.1l12.2,7.1
			l12.2-7.1v-14.1L378.8,324.5L378.8,324.5z"/>
	</g>
	<g class="st0">
		<polygon class="st5" points="354.6,324.4 354.6,310.6 366.6,303.6 378.6,310.6 378.6,324.4 366.6,331.3 		"/>
		<path class="st2" d="M366.6,303.9l11.7,6.8v13.5l-11.7,6.8l-11.7-6.8v-13.5L366.6,303.9 M366.6,303.4l-12.2,7.1v14.1l12.2,7.1
			l12.2-7.1v-14.1L366.6,303.4L366.6,303.4z"/>
	</g>
	<g class="st0">
		<polygon class="st5" points="366.8,303.2 366.8,289.4 378.8,282.5 390.8,289.4 390.8,303.2 378.8,310.1 		"/>
		<path class="st2" d="M378.8,282.7l11.7,6.8v13.5l-11.7,6.8l-11.7-6.8v-13.5L378.8,282.7 M378.8,282.2l-12.2,7.1v14.1l12.2,7.1
			l12.2-7.1v-14.1L378.8,282.2L378.8,282.2z"/>
	</g>
	<g class="st0">
		<polygon class="st5" points="342.4,388 342.4,374.1 354.4,367.2 366.3,374.1 366.3,388 354.4,394.9 		"/>
		<path class="st2" d="M354.4,367.5l11.7,6.8v13.5l-11.7,6.8l-11.7-6.8v-13.5L354.4,367.5 M354.4,366.9l-12.2,7.1v14.1l12.2,7.1
			l12.2-7.1V374L354.4,366.9L354.4,366.9z"/>
	</g>
	<g class="st0">
		<polygon class="st5" points="330.2,366.8 330.2,352.9 342.1,346 354.1,352.9 354.1,366.8 342.1,373.7 		"/>
		<path class="st2" d="M342.1,346.3l11.7,6.8v13.5l-11.7,6.8l-11.7-6.8v-13.5L342.1,346.3 M342.1,345.7l-12.2,7.1v14.1l12.2,7.1
			l12.2-7.1v-14.1L342.1,345.7L342.1,345.7z"/>
	</g>
	<g class="st0">
		<polygon class="st5" points="342.4,345.6 342.4,331.7 354.4,324.8 366.3,331.7 366.3,345.6 354.4,352.5 		"/>
		<path class="st2" d="M354.4,325.1l11.7,6.8v13.5l-11.7,6.8l-11.7-6.8v-13.5L354.4,325.1 M354.4,324.5l-12.2,7.1v14.1l12.2,7.1
			l12.2-7.1v-14.1L354.4,324.5L354.4,324.5z"/>
	</g>
	<g class="st0">
		<polygon class="st5" points="330.2,324.4 330.2,310.6 342.1,303.6 354.1,310.6 354.1,324.4 342.1,331.3 		"/>
		<path class="st2" d="M342.1,303.9l11.7,6.8v13.5l-11.7,6.8l-11.7-6.8v-13.5L342.1,303.9 M342.1,303.4l-12.2,7.1v14.1l12.2,7.1
			l12.2-7.1v-14.1L342.1,303.4L342.1,303.4z"/>
	</g>
	<g class="st0">
		<polygon class="st5" points="342.4,303.2 342.4,289.4 354.4,282.5 366.3,289.4 366.3,303.2 354.4,310.1 		"/>
		<path class="st2" d="M354.4,282.7l11.7,6.8v13.5l-11.7,6.8l-11.7-6.8v-13.5L354.4,282.7 M354.4,282.2l-12.2,7.1v14.1l12.2,7.1
			l12.2-7.1v-14.1L354.4,282.2L354.4,282.2z"/>
	</g>
	<g class="st0">
		<polygon class="st5" points="317.9,388 317.9,374.1 329.9,367.2 341.9,374.1 341.9,388 329.9,394.9 		"/>
		<path class="st2" d="M329.9,367.5l11.7,6.8v13.5l-11.7,6.8l-11.7-6.8v-13.5L329.9,367.5 M329.9,366.9l-12.2,7.1v14.1l12.2,7.1
			l12.2-7.1V374L329.9,366.9L329.9,366.9z"/>
	</g>
	<g class="st0">
		<polygon class="st5" points="305.7,366.8 305.7,352.9 317.7,346 329.7,352.9 329.7,366.8 317.7,373.7 		"/>
		<path class="st2" d="M317.7,346.3l11.7,6.8v13.5l-11.7,6.8l-11.7-6.8v-13.5L317.7,346.3 M317.7,345.7l-12.2,7.1v14.1l12.2,7.1
			l12.2-7.1v-14.1L317.7,345.7L317.7,345.7z"/>
	</g>
	<g class="st0">
		<polygon class="st5" points="317.9,345.6 317.9,331.7 329.9,324.8 341.9,331.7 341.9,345.6 329.9,352.5 		"/>
		<path class="st2" d="M329.9,325.1l11.7,6.8v13.5l-11.7,6.8l-11.7-6.8v-13.5L329.9,325.1 M329.9,324.5l-12.2,7.1v14.1l12.2,7.1
			l12.2-7.1v-14.1L329.9,324.5L329.9,324.5z"/>
	</g>
</g>
<g id="MB">
	<g class="st0">
		<polygon class="st6" points="305.7,324.4 305.7,310.6 317.7,303.6 329.7,310.6 329.7,324.4 317.7,331.3 		"/>
		<path class="st2" d="M317.7,303.9l11.7,6.8v13.5l-11.7,6.8l-11.7-6.8v-13.5L317.7,303.9 M317.7,303.4l-12.2,7.1v14.1l12.2,7.1
			l12.2-7.1v-14.1L317.7,303.4L317.7,303.4z"/>
	</g>
	<g class="st0">
		<polygon class="st6" points="317.9,303.2 317.9,289.4 329.9,282.5 341.9,289.4 341.9,303.2 329.9,310.1 		"/>
		<path class="st2" d="M329.9,282.7l11.7,6.8v13.5l-11.7,6.8l-11.7-6.8v-13.5L329.9,282.7 M329.9,282.2l-12.2,7.1v14.1l12.2,7.1
			l12.2-7.1v-14.1L329.9,282.2L329.9,282.2z"/>
	</g>
	<g class="st0">
		<polygon class="st6" points="305.7,282 305.7,268.2 317.7,261.3 329.7,268.2 329.7,282 317.7,288.9 		"/>
		<path class="st2" d="M317.7,261.6l11.7,6.8v13.5l-11.7,6.8l-11.7-6.8v-13.5L317.7,261.6 M317.7,261l-12.2,7.1v14.1l12.2,7.1
			l12.2-7.1V268L317.7,261L317.7,261z"/>
	</g>
	<g class="st0">
		<polygon class="st6" points="293.5,388 293.5,374.1 305.5,367.2 317.5,374.1 317.5,388 305.5,394.9 		"/>
		<path class="st2" d="M305.5,367.5l11.7,6.8v13.5l-11.7,6.8l-11.7-6.8v-13.5L305.5,367.5 M305.5,366.9l-12.2,7.1v14.1l12.2,7.1
			l12.2-7.1V374L305.5,366.9L305.5,366.9z"/>
	</g>
	<g class="st0">
		<polygon class="st6" points="281.3,366.8 281.3,352.9 293.3,346 305.2,352.9 305.2,366.8 293.3,373.7 		"/>
		<path class="st2" d="M293.3,346.3l11.7,6.8v13.5l-11.7,6.8l-11.7-6.8v-13.5L293.3,346.3 M293.3,345.7l-12.2,7.1v14.1l12.2,7.1
			l12.2-7.1v-14.1L293.3,345.7L293.3,345.7z"/>
	</g>
	<g class="st0">
		<polygon class="st6" points="293.5,345.6 293.5,331.7 305.5,324.8 317.5,331.7 317.5,345.6 305.5,352.5 		"/>
		<path class="st2" d="M305.5,325.1l11.7,6.8v13.5l-11.7,6.8l-11.7-6.8v-13.5L305.5,325.1 M305.5,324.5l-12.2,7.1v14.1l12.2,7.1
			l12.2-7.1v-14.1L305.5,324.5L305.5,324.5z"/>
	</g>
	<g class="st0">
		<polygon class="st6" points="281.3,324.4 281.3,310.6 293.3,303.6 305.2,310.6 305.2,324.4 293.3,331.3 		"/>
		<path class="st2" d="M293.3,303.9l11.7,6.8v13.5l-11.7,6.8l-11.7-6.8v-13.5L293.3,303.9 M293.3,303.4l-12.2,7.1v14.1l12.2,7.1
			l12.2-7.1v-14.1L293.3,303.4L293.3,303.4z"/>
	</g>
	<g class="st0">
		<polygon class="st6" points="293.5,303.2 293.5,289.4 305.5,282.5 317.5,289.4 317.5,303.2 305.5,310.1 		"/>
		<path class="st2" d="M305.5,282.7l11.7,6.8v13.5l-11.7,6.8l-11.7-6.8v-13.5L305.5,282.7 M305.5,282.2l-12.2,7.1v14.1l12.2,7.1
			l12.2-7.1v-14.1L305.5,282.2L305.5,282.2z"/>
	</g>
	<g class="st0">
		<polygon class="st6" points="281.3,282 281.3,268.2 293.3,261.3 305.2,268.2 305.2,282 293.3,288.9 		"/>
		<path class="st2" d="M293.3,261.6l11.7,6.8v13.5l-11.7,6.8l-11.7-6.8v-13.5L293.3,261.6 M293.3,261L281,268v14.1l12.2,7.1
			l12.2-7.1V268L293.3,261L293.3,261z"/>
	</g>
	<g class="st0">
		<polygon class="st6" points="293.5,260.8 293.5,247 305.5,240.1 317.5,247 317.5,260.8 305.5,267.8 		"/>
		<path class="st2" d="M305.5,240.4l11.7,6.8v13.5l-11.7,6.8l-11.7-6.8v-13.5L305.5,240.4 M305.5,239.8l-12.2,7.1V261l12.2,7.1
			l12.2-7.1v-14.1L305.5,239.8L305.5,239.8z"/>
	</g>
	<g class="st0">
		<polygon class="st6" points="269.1,388 269.1,374.1 281,367.2 293,374.1 293,388 281,394.9 		"/>
		<path class="st2" d="M281.1,367.5l11.7,6.8v13.5l-11.7,6.8l-11.7-6.8v-13.5L281.1,367.5 M281.1,366.9l-12.2,7.1v14.1l12.2,7.1
			l12.2-7.1V374L281.1,366.9L281.1,366.9z"/>
	</g>
	<g class="st0">
		<polygon class="st6" points="256.9,366.8 256.9,352.9 268.8,346 280.8,352.9 280.8,366.8 268.8,373.7 		"/>
		<path class="st2" d="M268.8,346.3l11.7,6.8v13.5l-11.7,6.8l-11.7-6.8v-13.5L268.8,346.3 M268.8,345.7l-12.2,7.1v14.1l12.2,7.1
			l12.2-7.1v-14.1L268.8,345.7L268.8,345.7z"/>
	</g>
	<g class="st0">
		<polygon class="st6" points="269.1,345.6 269.1,331.7 281,324.8 293,331.7 293,345.6 281,352.5 		"/>
		<path class="st2" d="M281.1,325.1l11.7,6.8v13.5l-11.7,6.8l-11.7-6.8v-13.5L281.1,325.1 M281.1,324.5l-12.2,7.1v14.1l12.2,7.1
			l12.2-7.1v-14.1L281.1,324.5L281.1,324.5z"/>
	</g>
	<g class="st0">
		<polygon class="st6" points="256.9,324.4 256.9,310.6 268.8,303.6 280.8,310.6 280.8,324.4 268.8,331.3 		"/>
		<path class="st2" d="M268.8,303.9l11.7,6.8v13.5l-11.7,6.8l-11.7-6.8v-13.5L268.8,303.9 M268.8,303.4l-12.2,7.1v14.1l12.2,7.1
			l12.2-7.1v-14.1L268.8,303.4L268.8,303.4z"/>
	</g>
	<g class="st0">
		<polygon class="st6" points="269.1,303.2 269.1,289.4 281,282.5 293,289.4 293,303.2 281,310.1 		"/>
		<path class="st2" d="M281.1,282.7l11.7,6.8v13.5l-11.7,6.8l-11.7-6.8v-13.5L281.1,282.7 M281.1,282.2l-12.2,7.1v14.1l12.2,7.1
			l12.2-7.1v-14.1L281.1,282.2L281.1,282.2z"/>
	</g>
	<g class="st0">
		<polygon class="st6" points="256.9,282 256.9,268.2 268.8,261.3 280.8,268.2 280.8,282 268.8,288.9 		"/>
		<path class="st2" d="M268.8,261.6l11.7,6.8v13.5l-11.7,6.8l-11.7-6.8v-13.5L268.8,261.6 M268.8,261l-12.2,7.1v14.1l12.2,7.1
			l12.2-7.1V268L268.8,261L268.8,261z"/>
	</g>
	<g class="st0">
		<polygon class="st6" points="269.1,260.8 269.1,247 281,240.1 293,247 293,260.8 281,267.8 		"/>
		<path class="st2" d="M281.1,240.4l11.7,6.8v13.5l-11.7,6.8l-11.7-6.8v-13.5L281.1,240.4 M281.1,239.8l-12.2,7.1V261l12.2,7.1
			l12.2-7.1v-14.1L281.1,239.8L281.1,239.8z"/>
	</g>
	<g class="st0">
		<polygon class="st6" points="244.6,388 244.6,374.1 256.6,367.2 268.6,374.1 268.6,388 256.6,394.9 		"/>
		<path class="st2" d="M256.6,367.5l11.7,6.8v13.5l-11.7,6.8l-11.7-6.8v-13.5L256.6,367.5 M256.6,366.9l-12.2,7.1v14.1l12.2,7.1
			l12.2-7.1V374L256.6,366.9L256.6,366.9z"/>
	</g>
	<g class="st0">
		<polygon class="st6" points="244.6,345.6 244.6,331.7 256.6,324.8 268.6,331.7 268.6,345.6 256.6,352.5 		"/>
		<path class="st2" d="M256.6,325.1l11.7,6.8v13.5l-11.7,6.8l-11.7-6.8v-13.5L256.6,325.1 M256.6,324.5l-12.2,7.1v14.1l12.2,7.1
			l12.2-7.1v-14.1L256.6,324.5L256.6,324.5z"/>
	</g>
</g>
<g id="NU">
	<g class="st0">
		<polygon class="st7" points="354.6,154.9 354.6,141.1 366.6,134.1 378.6,141.1 378.6,154.9 366.6,161.8 		"/>
		<path class="st2" d="M366.6,134.4l11.7,6.8v13.5l-11.7,6.8l-11.7-6.8v-13.5L366.6,134.4 M366.6,133.9l-12.2,7.1V155l12.2,7.1
			l12.2-7.1v-14.1L366.6,133.9L366.6,133.9z"/>
	</g>
	<g class="st0">
		<polygon class="st7" points="330.2,197.3 330.2,183.4 342.1,176.5 354.1,183.4 354.1,197.3 342.1,204.2 		"/>
		<path class="st2" d="M342.1,176.8l11.7,6.8v13.5l-11.7,6.8l-11.7-6.8v-13.5L342.1,176.8 M342.1,176.2l-12.2,7.1v14.1l12.2,7.1
			l12.2-7.1v-14.1L342.1,176.2L342.1,176.2z"/>
	</g>
	<g class="st0">
		<polygon class="st7" points="342.4,176.1 342.4,162.3 354.4,155.3 366.3,162.3 366.3,176.1 354.4,183 		"/>
		<path class="st2" d="M354.4,155.6l11.7,6.8v13.5l-11.7,6.8l-11.7-6.8v-13.5L354.4,155.6 M354.4,155l-12.2,7.1v14.1l12.2,7.1
			l12.2-7.1v-14.1L354.4,155L354.4,155z"/>
	</g>
	<g class="st0">
		<polygon class="st7" points="330.2,154.9 330.2,141.1 342.1,134.1 354.1,141.1 354.1,154.9 342.1,161.8 		"/>
		<path class="st2" d="M342.1,134.4l11.7,6.8v13.5l-11.7,6.8l-11.7-6.8v-13.5L342.1,134.4 M342.1,133.9l-12.2,7.1V155l12.2,7.1
			l12.2-7.1v-14.1L342.1,133.9L342.1,133.9z"/>
	</g>
	<g class="st0">
		<polygon class="st7" points="342.4,133.7 342.4,119.9 354.4,113 366.3,119.9 366.3,133.7 354.4,140.6 		"/>
		<path class="st2" d="M354.4,113.3l11.7,6.8v13.5l-11.7,6.8l-11.7-6.8V120L354.4,113.3 M354.4,112.7l-12.2,7.1v14.1l12.2,7.1
			l12.2-7.1v-14.1L354.4,112.7L354.4,112.7z"/>
	</g>
	<g class="st0">
		<polygon class="st7" points="330.2,112.5 330.2,98.7 342.1,91.8 354.1,98.7 354.1,112.5 342.1,119.4 		"/>
		<path class="st2" d="M342.1,92.1l11.7,6.8v13.5l-11.7,6.8l-11.7-6.8V98.8L342.1,92.1 M342.1,91.5l-12.2,7.1v14.1l12.2,7.1
			l12.2-7.1V98.5L342.1,91.5L342.1,91.5z"/>
	</g>
	<g class="st0">
		<polygon class="st7" points="317.9,218.5 317.9,204.6 329.9,197.7 341.9,204.6 341.9,218.5 329.9,225.4 		"/>
		<path class="st2" d="M329.9,198l11.7,6.8v13.5l-11.7,6.8l-11.7-6.8v-13.5L329.9,198 M329.9,197.4l-12.2,7.1v14.1l12.2,7.1
			l12.2-7.1v-14.1L329.9,197.4L329.9,197.4z"/>
	</g>
	<g class="st0">
		<polygon class="st7" points="305.7,197.3 305.7,183.4 317.7,176.5 329.7,183.4 329.7,197.3 317.7,204.2 		"/>
		<path class="st2" d="M317.7,176.8l11.7,6.8v13.5l-11.7,6.8l-11.7-6.8v-13.5L317.7,176.8 M317.7,176.2l-12.2,7.1v14.1l12.2,7.1
			l12.2-7.1v-14.1L317.7,176.2L317.7,176.2z"/>
	</g>
	<g class="st0">
		<polygon class="st7" points="317.9,176.1 317.9,162.3 329.9,155.3 341.9,162.3 341.9,176.1 329.9,183 		"/>
		<path class="st2" d="M329.9,155.6l11.7,6.8v13.5l-11.7,6.8l-11.7-6.8v-13.5L329.9,155.6 M329.9,155l-12.2,7.1v14.1l12.2,7.1
			l12.2-7.1v-14.1L329.9,155L329.9,155z"/>
	</g>
	<g class="st0">
		<polygon class="st7" points="305.7,154.9 305.7,141.1 317.7,134.1 329.7,141.1 329.7,154.9 317.7,161.8 		"/>
		<path class="st2" d="M317.7,134.4l11.7,6.8v13.5l-11.7,6.8l-11.7-6.8v-13.5L317.7,134.4 M317.7,133.9l-12.2,7.1V155l12.2,7.1
			l12.2-7.1v-14.1L317.7,133.9L317.7,133.9z"/>
	</g>
	<g class="st0">
		<polygon class="st7" points="317.9,133.7 317.9,119.9 329.9,113 341.9,119.9 341.9,133.7 329.9,140.6 		"/>
		<path class="st2" d="M329.9,113.3l11.7,6.8v13.5l-11.7,6.8l-11.7-6.8V120L329.9,113.3 M329.9,112.7l-12.2,7.1v14.1l12.2,7.1
			l12.2-7.1v-14.1L329.9,112.7L329.9,112.7z"/>
	</g>
	<g class="st0">
		<polygon class="st7" points="281.3,239.6 281.3,225.8 293.3,218.9 305.2,225.8 305.2,239.6 293.3,246.6 		"/>
		<path class="st2" d="M293.3,219.2L305,226v13.5l-11.7,6.8l-11.7-6.8V226L293.3,219.2 M293.3,218.6l-12.2,7.1v14.1l12.2,7.1
			l12.2-7.1v-14.1L293.3,218.6L293.3,218.6z"/>
	</g>
	<g class="st0">
		<polygon class="st7" points="293.5,218.5 293.5,204.6 305.5,197.7 317.5,204.6 317.5,218.5 305.5,225.4 		"/>
		<path class="st2" d="M305.5,198l11.7,6.8v13.5l-11.7,6.8l-11.7-6.8v-13.5L305.5,198 M305.5,197.4l-12.2,7.1v14.1l12.2,7.1
			l12.2-7.1v-14.1L305.5,197.4L305.5,197.4z"/>
	</g>
	<g class="st0">
		<polygon class="st7" points="281.3,197.3 281.3,183.4 293.3,176.5 305.2,183.4 305.2,197.3 293.3,204.2 		"/>
		<path class="st2" d="M293.3,176.8l11.7,6.8v13.5l-11.7,6.8l-11.7-6.8v-13.5L293.3,176.8 M293.3,176.2l-12.2,7.1v14.1l12.2,7.1
			l12.2-7.1v-14.1L293.3,176.2L293.3,176.2z"/>
	</g>
	<g class="st0">
		<polygon class="st7" points="293.5,176.1 293.5,162.3 305.5,155.3 317.5,162.3 317.5,176.1 305.5,183 		"/>
		<path class="st2" d="M305.5,155.6l11.7,6.8v13.5l-11.7,6.8l-11.7-6.8v-13.5L305.5,155.6 M305.5,155l-12.2,7.1v14.1l12.2,7.1
			l12.2-7.1v-14.1L305.5,155L305.5,155z"/>
	</g>
	<g class="st0">
		<polygon class="st7" points="281.3,154.9 281.3,141.1 293.3,134.1 305.2,141.1 305.2,154.9 293.3,161.8 		"/>
		<path class="st2" d="M293.3,134.4l11.7,6.8v13.5l-11.7,6.8l-11.7-6.8v-13.5L293.3,134.4 M293.3,133.9l-12.2,7.1V155l12.2,7.1
			l12.2-7.1v-14.1L293.3,133.9L293.3,133.9z"/>
	</g>
	<g class="st0">
		<polygon class="st7" points="293.5,133.7 293.5,119.9 305.5,113 317.5,119.9 317.5,133.7 305.5,140.6 		"/>
		<path class="st2" d="M305.5,113.3l11.7,6.8v13.5l-11.7,6.8l-11.7-6.8V120L305.5,113.3 M305.5,112.7l-12.2,7.1v14.1l12.2,7.1
			l12.2-7.1v-14.1L305.5,112.7L305.5,112.7z"/>
	</g>
	<g class="st0">
		<polygon class="st7" points="256.9,239.6 256.9,225.8 268.8,218.9 280.8,225.8 280.8,239.6 268.8,246.6 		"/>
		<path class="st2" d="M268.8,219.2l11.7,6.8v13.5l-11.7,6.8l-11.7-6.8V226L268.8,219.2 M268.8,218.6l-12.2,7.1v14.1l12.2,7.1
			l12.2-7.1v-14.1L268.8,218.6L268.8,218.6z"/>
	</g>
	<g class="st0">
		<polygon class="st7" points="269.1,218.5 269.1,204.6 281,197.7 293,204.6 293,218.5 281,225.4 		"/>
		<path class="st2" d="M281.1,198l11.7,6.8v13.5l-11.7,6.8l-11.7-6.8v-13.5L281.1,198 M281.1,197.4l-12.2,7.1v14.1l12.2,7.1
			l12.2-7.1v-14.1L281.1,197.4L281.1,197.4z"/>
	</g>
	<g class="st0">
		<polygon class="st7" points="256.9,197.3 256.9,183.4 268.8,176.5 280.8,183.4 280.8,197.3 268.8,204.2 		"/>
		<path class="st2" d="M268.8,176.8l11.7,6.8v13.5l-11.7,6.8l-11.7-6.8v-13.5L268.8,176.8 M268.8,176.2l-12.2,7.1v14.1l12.2,7.1
			l12.2-7.1v-14.1L268.8,176.2L268.8,176.2z"/>
	</g>
	<g class="st0">
		<polygon class="st7" points="269.1,176.1 269.1,162.3 281,155.3 293,162.3 293,176.1 281,183 		"/>
		<path class="st2" d="M281.1,155.6l11.7,6.8v13.5l-11.7,6.8l-11.7-6.8v-13.5L281.1,155.6 M281.1,155l-12.2,7.1v14.1l12.2,7.1
			l12.2-7.1v-14.1L281.1,155L281.1,155z"/>
	</g>
	<g class="st0">
		<polygon class="st7" points="256.9,154.9 256.9,141.1 268.8,134.1 280.8,141.1 280.8,154.9 268.8,161.8 		"/>
		<path class="st2" d="M268.8,134.4l11.7,6.8v13.5l-11.7,6.8l-11.7-6.8v-13.5L268.8,134.4 M268.8,133.9l-12.2,7.1V155l12.2,7.1
			l12.2-7.1v-14.1L268.8,133.9L268.8,133.9z"/>
	</g>
	<g class="st0">
		<polygon class="st7" points="269.1,133.7 269.1,119.9 281,113 293,119.9 293,133.7 281,140.6 		"/>
		<path class="st2" d="M281.1,113.3l11.7,6.8v13.5l-11.7,6.8l-11.7-6.8V120L281.1,113.3 M281.1,112.7l-12.2,7.1v14.1l12.2,7.1
			l12.2-7.1v-14.1L281.1,112.7L281.1,112.7z"/>
	</g>
	<g class="st0">
		<polygon class="st7" points="244.6,218.5 244.6,204.6 256.6,197.7 268.6,204.6 268.6,218.5 256.6,225.4 		"/>
		<path class="st2" d="M256.6,198l11.7,6.8v13.5l-11.7,6.8l-11.7-6.8v-13.5L256.6,198 M256.6,197.4l-12.2,7.1v14.1l12.2,7.1
			l12.2-7.1v-14.1L256.6,197.4L256.6,197.4z"/>
	</g>
	<g class="st0">
		<polygon class="st7" points="244.6,176.1 244.6,162.3 256.6,155.3 268.6,162.3 268.6,176.1 256.6,183 		"/>
		<path class="st2" d="M256.6,155.6l11.7,6.8v13.5l-11.7,6.8l-11.7-6.8v-13.5L256.6,155.6 M256.6,155l-12.2,7.1v14.1l12.2,7.1
			l12.2-7.1v-14.1L256.6,155L256.6,155z"/>
	</g>
	<g class="st0">
		<polygon class="st7" points="232.4,154.9 232.4,141.1 244.4,134.1 256.4,141.1 256.4,154.9 244.4,161.8 		"/>
		<path class="st2" d="M244.4,134.4l11.7,6.8v13.5l-11.7,6.8l-11.7-6.8v-13.5L244.4,134.4 M244.4,133.9l-12.2,7.1V155l12.2,7.1
			l12.2-7.1v-14.1L244.4,133.9L244.4,133.9z"/>
	</g>
	<g class="st0">
		<polygon class="st7" points="244.6,133.7 244.6,119.9 256.6,113 268.6,119.9 268.6,133.7 256.6,140.6 		"/>
		<path class="st2" d="M256.6,113.3l11.7,6.8v13.5l-11.7,6.8l-11.7-6.8V120L256.6,113.3 M256.6,112.7l-12.2,7.1v14.1l12.2,7.1
			l12.2-7.1v-14.1L256.6,112.7L256.6,112.7z"/>
	</g>
	<g class="st0">
		<polygon class="st7" points="220.2,133.7 220.2,119.9 232.2,113 244.2,119.9 244.2,133.7 232.2,140.6 		"/>
		<path class="st2" d="M232.2,113.3l11.7,6.8v13.5l-11.7,6.8l-11.7-6.8V120L232.2,113.3 M232.2,112.7l-12.2,7.1v14.1l12.2,7.1
			l12.2-7.1v-14.1L232.2,112.7L232.2,112.7z"/>
	</g>
</g>
<g id="SK">
	<g class="st0">
		<polygon class="st8" points="232.4,366.8 232.4,352.9 244.4,346 256.4,352.9 256.4,366.8 244.4,373.7 		"/>
		<path class="st2" d="M244.4,346.3l11.7,6.8v13.5l-11.7,6.8l-11.7-6.8v-13.5L244.4,346.3 M244.4,345.7l-12.2,7.1v14.1l12.2,7.1
			l12.2-7.1v-14.1L244.4,345.7L244.4,345.7z"/>
	</g>
	<g class="st0">
		<polygon class="st8" points="232.4,324.4 232.4,310.6 244.4,303.6 256.4,310.6 256.4,324.4 244.4,331.3 		"/>
		<path class="st2" d="M244.4,303.9l11.7,6.8v13.5l-11.7,6.8l-11.7-6.8v-13.5L244.4,303.9 M244.4,303.4l-12.2,7.1v14.1l12.2,7.1
			l12.2-7.1v-14.1L244.4,303.4L244.4,303.4z"/>
	</g>
	<g class="st0">
		<polygon class="st8" points="244.6,303.2 244.6,289.4 256.6,282.5 268.6,289.4 268.6,303.2 256.6,310.1 		"/>
		<path class="st2" d="M256.6,282.7l11.7,6.8v13.5l-11.7,6.8l-11.7-6.8v-13.5L256.6,282.7 M256.6,282.2l-12.2,7.1v14.1l12.2,7.1
			l12.2-7.1v-14.1L256.6,282.2L256.6,282.2z"/>
	</g>
	<g class="st0">
		<polygon class="st8" points="232.4,282 232.4,268.2 244.4,261.3 256.4,268.2 256.4,282 244.4,288.9 		"/>
		<path class="st2" d="M244.4,261.6l11.7,6.8v13.5l-11.7,6.8l-11.7-6.8v-13.5L244.4,261.6 M244.4,261l-12.2,7.1v14.1l12.2,7.1
			l12.2-7.1V268L244.4,261L244.4,261z"/>
	</g>
	<g class="st0">
		<polygon class="st8" points="244.6,260.8 244.6,247 256.6,240.1 268.6,247 268.6,260.8 256.6,267.8 		"/>
		<path class="st2" d="M256.6,240.4l11.7,6.8v13.5l-11.7,6.8l-11.7-6.8v-13.5L256.6,240.4 M256.6,239.8l-12.2,7.1V261l12.2,7.1
			l12.2-7.1v-14.1L256.6,239.8L256.6,239.8z"/>
	</g>
	<g class="st0">
		<polygon class="st8" points="220.2,388 220.2,374.1 232.2,367.2 244.2,374.1 244.2,388 232.2,394.9 		"/>
		<path class="st2" d="M232.2,367.5l11.7,6.8v13.5l-11.7,6.8l-11.7-6.8v-13.5L232.2,367.5 M232.2,366.9l-12.2,7.1v14.1l12.2,7.1
			l12.2-7.1V374L232.2,366.9L232.2,366.9z"/>
	</g>
	<g class="st0">
		<polygon class="st8" points="208,366.8 208,352.9 220,346 231.9,352.9 231.9,366.8 220,373.7 		"/>
		<path class="st2" d="M220,346.3l11.7,6.8v13.5l-11.7,6.8l-11.7-6.8v-13.5L220,346.3 M220,345.7l-12.2,7.1v14.1L220,374l12.2-7.1
			v-14.1L220,345.7L220,345.7z"/>
	</g>
	<g class="st0">
		<polygon class="st8" points="220.2,345.6 220.2,331.7 232.2,324.8 244.2,331.7 244.2,345.6 232.2,352.5 		"/>
		<path class="st2" d="M232.2,325.1l11.7,6.8v13.5l-11.7,6.8l-11.7-6.8v-13.5L232.2,325.1 M232.2,324.5l-12.2,7.1v14.1l12.2,7.1
			l12.2-7.1v-14.1L232.2,324.5L232.2,324.5z"/>
	</g>
	<g class="st0">
		<polygon class="st8" points="208,324.4 208,310.6 220,303.6 231.9,310.6 231.9,324.4 220,331.3 		"/>
		<path class="st2" d="M220,303.9l11.7,6.8v13.5L220,331l-11.7-6.8v-13.5L220,303.9 M220,303.4l-12.2,7.1v14.1l12.2,7.1l12.2-7.1
			v-14.1L220,303.4L220,303.4z"/>
	</g>
	<g class="st0">
		<polygon class="st8" points="220.2,303.2 220.2,289.4 232.2,282.5 244.2,289.4 244.2,303.2 232.2,310.1 		"/>
		<path class="st2" d="M232.2,282.7l11.7,6.8v13.5l-11.7,6.8l-11.7-6.8v-13.5L232.2,282.7 M232.2,282.2l-12.2,7.1v14.1l12.2,7.1
			l12.2-7.1v-14.1L232.2,282.2L232.2,282.2z"/>
	</g>
	<g class="st0">
		<polygon class="st8" points="208,282 208,268.2 220,261.3 231.9,268.2 231.9,282 220,288.9 		"/>
		<path class="st2" d="M220,261.6l11.7,6.8v13.5l-11.7,6.8l-11.7-6.8v-13.5L220,261.6 M220,261l-12.2,7.1v14.1l12.2,7.1l12.2-7.1
			V268L220,261L220,261z"/>
	</g>
	<g class="st0">
		<polygon class="st8" points="220.2,260.8 220.2,247 232.2,240.1 244.2,247 244.2,260.8 232.2,267.8 		"/>
		<path class="st2" d="M232.2,240.4l11.7,6.8v13.5l-11.7,6.8l-11.7-6.8v-13.5L232.2,240.4 M232.2,239.8l-12.2,7.1V261l12.2,7.1
			l12.2-7.1v-14.1L232.2,239.8L232.2,239.8z"/>
	</g>
	<g class="st0">
		<polygon class="st8" points="195.8,388 195.8,374.1 207.7,367.2 219.7,374.1 219.7,388 207.7,394.9 		"/>
		<path class="st2" d="M207.7,367.5l11.7,6.8v13.5l-11.7,6.8l-11.7-6.8v-13.5L207.7,367.5 M207.7,366.9l-12.2,7.1v14.1l12.2,7.1
			l12.2-7.1V374L207.7,366.9L207.7,366.9z"/>
	</g>
	<g class="st0">
		<polygon class="st8" points="183.5,366.8 183.5,352.9 195.5,346 207.5,352.9 207.5,366.8 195.5,373.7 		"/>
		<path class="st2" d="M195.5,346.3l11.7,6.8v13.5l-11.7,6.8l-11.7-6.8v-13.5L195.5,346.3 M195.5,345.7l-12.2,7.1v14.1l12.2,7.1
			l12.2-7.1v-14.1L195.5,345.7L195.5,345.7z"/>
	</g>
	<g class="st0">
		<polygon class="st8" points="195.8,345.6 195.8,331.7 207.7,324.8 219.7,331.7 219.7,345.6 207.7,352.5 		"/>
		<path class="st2" d="M207.7,325.1l11.7,6.8v13.5l-11.7,6.8l-11.7-6.8v-13.5L207.7,325.1 M207.7,324.5l-12.2,7.1v14.1l12.2,7.1
			l12.2-7.1v-14.1L207.7,324.5L207.7,324.5z"/>
	</g>
	<g class="st0">
		<polygon class="st8" points="183.5,324.4 183.5,310.6 195.5,303.6 207.5,310.6 207.5,324.4 195.5,331.3 		"/>
		<path class="st2" d="M195.5,303.9l11.7,6.8v13.5l-11.7,6.8l-11.7-6.8v-13.5L195.5,303.9 M195.5,303.4l-12.2,7.1v14.1l12.2,7.1
			l12.2-7.1v-14.1L195.5,303.4L195.5,303.4z"/>
	</g>
	<g class="st0">
		<polygon class="st8" points="195.8,303.2 195.8,289.4 207.7,282.5 219.7,289.4 219.7,303.2 207.7,310.1 		"/>
		<path class="st2" d="M207.7,282.7l11.7,6.8v13.5l-11.7,6.8l-11.7-6.8v-13.5L207.7,282.7 M207.7,282.2l-12.2,7.1v14.1l12.2,7.1
			l12.2-7.1v-14.1L207.7,282.2L207.7,282.2z"/>
	</g>
	<g class="st0">
		<polygon class="st8" points="195.8,260.8 195.8,247 207.7,240.1 219.7,247 219.7,260.8 207.7,267.8 		"/>
		<path class="st2" d="M207.7,240.4l11.7,6.8v13.5l-11.7,6.8l-11.7-6.8v-13.5L207.7,240.4 M207.7,239.8l-12.2,7.1V261l12.2,7.1
			L220,261v-14.1L207.7,239.8L207.7,239.8z"/>
	</g>
	<g class="st0">
		<polygon class="st8" points="171.3,345.6 171.3,331.7 183.3,324.8 195.3,331.7 195.3,345.6 183.3,352.5 		"/>
		<path class="st2" d="M183.3,325.1l11.7,6.8v13.5l-11.7,6.8l-11.7-6.8v-13.5L183.3,325.1 M183.3,324.5l-12.2,7.1v14.1l12.2,7.1
			l12.2-7.1v-14.1L183.3,324.5L183.3,324.5z"/>
	</g>
</g>
<g id="AB">
	<g class="st0">
		<polygon class="st9" points="183.5,282 183.5,268.2 195.5,261.3 207.5,268.2 207.5,282 195.5,288.9 		"/>
		<path class="st2" d="M195.5,261.6l11.7,6.8v13.5l-11.7,6.8l-11.7-6.8v-13.5L195.5,261.6 M195.5,261l-12.2,7.1v14.1l12.2,7.1
			l12.2-7.1V268L195.5,261L195.5,261z"/>
	</g>
	<g class="st0">
		<polygon class="st9" points="183.5,239.6 183.5,225.8 195.5,218.9 207.5,225.8 207.5,239.6 195.5,246.6 		"/>
		<path class="st2" d="M195.5,219.2l11.7,6.8v13.5l-11.7,6.8l-11.7-6.8V226L195.5,219.2 M195.5,218.6l-12.2,7.1v14.1l12.2,7.1
			l12.2-7.1v-14.1L195.5,218.6L195.5,218.6z"/>
	</g>
	<g class="st0">
		<polygon class="st9" points="159.1,366.8 159.1,352.9 171.1,346 183.1,352.9 183.1,366.8 171.1,373.7 		"/>
		<path class="st2" d="M171.1,346.3l11.7,6.8v13.5l-11.7,6.8l-11.7-6.8v-13.5L171.1,346.3 M171.1,345.7l-12.2,7.1v14.1l12.2,7.1
			l12.2-7.1v-14.1L171.1,345.7L171.1,345.7z"/>
	</g>
	<g class="st0">
		<polygon class="st9" points="159.1,324.4 159.1,310.6 171.1,303.6 183.1,310.6 183.1,324.4 171.1,331.3 		"/>
		<path class="st2" d="M171.1,303.9l11.7,6.8v13.5l-11.7,6.8l-11.7-6.8v-13.5L171.1,303.9 M171.1,303.4l-12.2,7.1v14.1l12.2,7.1
			l12.2-7.1v-14.1L171.1,303.4L171.1,303.4z"/>
	</g>
	<g class="st0">
		<polygon class="st9" points="171.3,303.2 171.3,289.4 183.3,282.5 195.3,289.4 195.3,303.2 183.3,310.1 		"/>
		<path class="st2" d="M183.3,282.7l11.7,6.8v13.5l-11.7,6.8l-11.7-6.8v-13.5L183.3,282.7 M183.3,282.2l-12.2,7.1v14.1l12.2,7.1
			l12.2-7.1v-14.1L183.3,282.2L183.3,282.2z"/>
	</g>
	<g class="st0">
		<polygon class="st9" points="159.1,282 159.1,268.2 171.1,261.3 183.1,268.2 183.1,282 171.1,288.9 		"/>
		<path class="st2" d="M171.1,261.6l11.7,6.8v13.5l-11.7,6.8l-11.7-6.8v-13.5L171.1,261.6 M171.1,261l-12.2,7.1v14.1l12.2,7.1
			l12.2-7.1V268L171.1,261L171.1,261z"/>
	</g>
	<g class="st0">
		<polygon class="st9" points="171.3,260.8 171.3,247 183.3,240.1 195.3,247 195.3,260.8 183.3,267.8 		"/>
		<path class="st2" d="M183.3,240.4l11.7,6.8v13.5l-11.7,6.8l-11.7-6.8v-13.5L183.3,240.4 M183.3,239.8l-12.2,7.1V261l12.2,7.1
			l12.2-7.1v-14.1L183.3,239.8L183.3,239.8z"/>
	</g>
	<g class="st0">
		<polygon class="st9" points="159.1,239.6 159.1,225.8 171.1,218.9 183.1,225.8 183.1,239.6 171.1,246.6 		"/>
		<path class="st2" d="M171.1,219.2l11.7,6.8v13.5l-11.7,6.8l-11.7-6.8V226L171.1,219.2 M171.1,218.6l-12.2,7.1v14.1l12.2,7.1
			l12.2-7.1v-14.1L171.1,218.6L171.1,218.6z"/>
	</g>
	<g class="st0">
		<polygon class="st9" points="134.7,366.8 134.7,352.9 146.7,346 158.6,352.9 158.6,366.8 146.7,373.7 		"/>
		<path class="st2" d="M146.7,346.3l11.7,6.8v13.5l-11.7,6.8l-11.7-6.8v-13.5L146.7,346.3 M146.7,345.7l-12.2,7.1v14.1l12.2,7.1
			l12.2-7.1v-14.1L146.7,345.7L146.7,345.7z"/>
	</g>
	<g class="st0">
		<polygon class="st9" points="146.9,345.6 146.9,331.7 158.9,324.8 170.9,331.7 170.9,345.6 158.9,352.5 		"/>
		<path class="st2" d="M158.9,325.1l11.7,6.8v13.5l-11.7,6.8l-11.7-6.8v-13.5L158.9,325.1 M158.9,324.5l-12.2,7.1v14.1l12.2,7.1
			l12.2-7.1v-14.1L158.9,324.5L158.9,324.5z"/>
	</g>
	<g class="st0">
		<polygon class="st9" points="134.7,324.4 134.7,310.6 146.7,303.6 158.6,310.6 158.6,324.4 146.7,331.3 		"/>
		<path class="st2" d="M146.7,303.9l11.7,6.8v13.5l-11.7,6.8l-11.7-6.8v-13.5L146.7,303.9 M146.7,303.4l-12.2,7.1v14.1l12.2,7.1
			l12.2-7.1v-14.1L146.7,303.4L146.7,303.4z"/>
	</g>
	<g class="st0">
		<polygon class="st9" points="146.9,303.2 146.9,289.4 158.9,282.5 170.9,289.4 170.9,303.2 158.9,310.1 		"/>
		<path class="st2" d="M158.9,282.7l11.7,6.8v13.5l-11.7,6.8l-11.7-6.8v-13.5L158.9,282.7 M158.9,282.2l-12.2,7.1v14.1l12.2,7.1
			l12.2-7.1v-14.1L158.9,282.2L158.9,282.2z"/>
	</g>
	<g class="st0">
		<polygon class="st9" points="134.7,282 134.7,268.2 146.7,261.3 158.6,268.2 158.6,282 146.7,288.9 		"/>
		<path class="st2" d="M146.7,261.6l11.7,6.8v13.5l-11.7,6.8l-11.7-6.8v-13.5L146.7,261.6 M146.7,261l-12.2,7.1v14.1l12.2,7.1
			l12.2-7.1V268L146.7,261L146.7,261z"/>
	</g>
	<g class="st0">
		<polygon class="st9" points="146.9,260.8 146.9,247 158.9,240.1 170.9,247 170.9,260.8 158.9,267.8 		"/>
		<path class="st2" d="M158.9,240.4l11.7,6.8v13.5l-11.7,6.8l-11.7-6.8v-13.5L158.9,240.4 M158.9,239.8l-12.2,7.1V261l12.2,7.1
			l12.2-7.1v-14.1L158.9,239.8L158.9,239.8z"/>
	</g>
	<g class="st0">
		<polygon class="st9" points="134.7,239.6 134.7,225.8 146.7,218.9 158.6,225.8 158.6,239.6 146.7,246.6 		"/>
		<path class="st2" d="M146.7,219.2l11.7,6.8v13.5l-11.7,6.8l-11.7-6.8V226L146.7,219.2 M146.7,218.6l-12.2,7.1v14.1l12.2,7.1
			l12.2-7.1v-14.1L146.7,218.6L146.7,218.6z"/>
	</g>
	<g class="st0">
		<polygon class="st9" points="146.9,218.5 146.9,204.6 158.9,197.7 170.9,204.6 170.9,218.5 158.9,225.4 		"/>
		<path class="st2" d="M158.9,198l11.7,6.8v13.5l-11.7,6.8l-11.7-6.8v-13.5L158.9,198 M158.9,197.4l-12.2,7.1v14.1l12.2,7.1
			l12.2-7.1v-14.1L158.9,197.4L158.9,197.4z"/>
	</g>
	<g class="st0">
		<polygon class="st9" points="122.5,345.6 122.5,331.7 134.4,324.8 146.4,331.7 146.4,345.6 134.4,352.5 		"/>
		<path class="st2" d="M134.4,325.1l11.7,6.8v13.5l-11.7,6.8l-11.7-6.8v-13.5L134.4,325.1 M134.4,324.5l-12.2,7.1v14.1l12.2,7.1
			l12.2-7.1v-14.1L134.4,324.5L134.4,324.5z"/>
	</g>
	<g class="st0">
		<polygon class="st9" points="110.2,324.4 110.2,310.6 122.2,303.6 134.2,310.6 134.2,324.4 122.2,331.3 		"/>
		<path class="st2" d="M122.2,303.9l11.7,6.8v13.5l-11.7,6.8l-11.7-6.8v-13.5L122.2,303.9 M122.2,303.4l-12.2,7.1v14.1l12.2,7.1
			l12.2-7.1v-14.1L122.2,303.4L122.2,303.4z"/>
	</g>
	<g class="st0">
		<polygon class="st9" points="122.5,303.2 122.5,289.4 134.4,282.5 146.4,289.4 146.4,303.2 134.4,310.1 		"/>
		<path class="st2" d="M134.4,282.7l11.7,6.8v13.5l-11.7,6.8l-11.7-6.8v-13.5L134.4,282.7 M134.4,282.2l-12.2,7.1v14.1l12.2,7.1
			l12.2-7.1v-14.1L134.4,282.2L134.4,282.2z"/>
	</g>
	<g class="st0">
		<polygon class="st9" points="110.2,282 110.2,268.2 122.2,261.3 134.2,268.2 134.2,282 122.2,288.9 		"/>
		<path class="st2" d="M122.2,261.6l11.7,6.8v13.5l-11.7,6.8l-11.7-6.8v-13.5L122.2,261.6 M122.2,261L110,268v14.1l12.2,7.1
			l12.2-7.1V268L122.2,261L122.2,261z"/>
	</g>
	<g class="st0">
		<polygon class="st9" points="122.5,260.8 122.5,247 134.4,240.1 146.4,247 146.4,260.8 134.4,267.8 		"/>
		<path class="st2" d="M134.4,240.4l11.7,6.8v13.5l-11.7,6.8l-11.7-6.8v-13.5L134.4,240.4 M134.4,239.8l-12.2,7.1V261l12.2,7.1
			l12.2-7.1v-14.1L134.4,239.8L134.4,239.8z"/>
	</g>
	<g class="st0">
		<polygon class="st9" points="110.2,239.6 110.2,225.8 122.2,218.9 134.2,225.8 134.2,239.6 122.2,246.6 		"/>
		<path class="st2" d="M122.2,219.2L134,226v13.5l-11.7,6.8l-11.7-6.8V226L122.2,219.2 M122.2,218.6l-12.2,7.1v14.1l12.2,7.1
			l12.2-7.1v-14.1L122.2,218.6L122.2,218.6z"/>
	</g>
	<g class="st0">
		<polygon class="st9" points="122.5,218.5 122.5,204.6 134.4,197.7 146.4,204.6 146.4,218.5 134.4,225.4 		"/>
		<path class="st2" d="M134.4,198l11.7,6.8v13.5l-11.7,6.8l-11.7-6.8v-13.5L134.4,198 M134.4,197.4l-12.2,7.1v14.1l12.2,7.1
			l12.2-7.1v-14.1L134.4,197.4L134.4,197.4z"/>
	</g>
</g>
<g id="NT">
	<g class="st0">
		<polygon class="st10" points="232.4,239.6 232.4,225.8 244.4,218.9 256.4,225.8 256.4,239.6 244.4,246.6 		"/>
		<path class="st2" d="M244.4,219.2l11.7,6.8v13.5l-11.7,6.8l-11.7-6.8V226L244.4,219.2 M244.4,218.6l-12.2,7.1v14.1l12.2,7.1
			l12.2-7.1v-14.1L244.4,218.6L244.4,218.6z"/>
	</g>
	<g class="st0">
		<polygon class="st10" points="232.4,197.3 232.4,183.4 244.4,176.5 256.4,183.4 256.4,197.3 244.4,204.2 		"/>
		<path class="st2" d="M244.4,176.8l11.7,6.8v13.5l-11.7,6.8l-11.7-6.8v-13.5L244.4,176.8 M244.4,176.2l-12.2,7.1v14.1l12.2,7.1
			l12.2-7.1v-14.1L244.4,176.2L244.4,176.2z"/>
	</g>
	<g class="st0">
		<polygon class="st10" points="208,239.6 208,225.8 220,218.9 231.9,225.8 231.9,239.6 220,246.6 		"/>
		<path class="st2" d="M220,219.2l11.7,6.8v13.5l-11.7,6.8l-11.7-6.8V226L220,219.2 M220,218.6l-12.2,7.1v14.1l12.2,7.1l12.2-7.1
			v-14.1L220,218.6L220,218.6z"/>
	</g>
	<g class="st0">
		<polygon class="st10" points="220.2,218.5 220.2,204.6 232.2,197.7 244.2,204.6 244.2,218.5 232.2,225.4 		"/>
		<path class="st2" d="M232.2,198l11.7,6.8v13.5l-11.7,6.8l-11.7-6.8v-13.5L232.2,198 M232.2,197.4l-12.2,7.1v14.1l12.2,7.1
			l12.2-7.1v-14.1L232.2,197.4L232.2,197.4z"/>
	</g>
	<g class="st0">
		<polygon class="st10" points="208,197.3 208,183.4 220,176.5 231.9,183.4 231.9,197.3 220,204.2 		"/>
		<path class="st2" d="M220,176.8l11.7,6.8v13.5l-11.7,6.8l-11.7-6.8v-13.5L220,176.8 M220,176.2l-12.2,7.1v14.1l12.2,7.1l12.2-7.1
			v-14.1L220,176.2L220,176.2z"/>
	</g>
	<g class="st0">
		<polygon class="st10" points="220.2,176.1 220.2,162.3 232.2,155.3 244.2,162.3 244.2,176.1 232.2,183 		"/>
		<path class="st2" d="M232.2,155.6l11.7,6.8v13.5l-11.7,6.8l-11.7-6.8v-13.5L232.2,155.6 M232.2,155l-12.2,7.1v14.1l12.2,7.1
			l12.2-7.1v-14.1L232.2,155L232.2,155z"/>
	</g>
	<g class="st0">
		<polygon class="st10" points="208,154.9 208,141.1 220,134.1 231.9,141.1 231.9,154.9 220,161.8 		"/>
		<path class="st2" d="M220,134.4l11.7,6.8v13.5l-11.7,6.8l-11.7-6.8v-13.5L220,134.4 M220,133.9l-12.2,7.1V155l12.2,7.1l12.2-7.1
			v-14.1L220,133.9L220,133.9z"/>
	</g>
	<g class="st0">
		<polygon class="st10" points="195.8,218.5 195.8,204.6 207.7,197.7 219.7,204.6 219.7,218.5 207.7,225.4 		"/>
		<path class="st2" d="M207.7,198l11.7,6.8v13.5l-11.7,6.8l-11.7-6.8v-13.5L207.7,198 M207.7,197.4l-12.2,7.1v14.1l12.2,7.1
			l12.2-7.1v-14.1L207.7,197.4L207.7,197.4z"/>
	</g>
	<g class="st0">
		<polygon class="st10" points="183.5,197.3 183.5,183.4 195.5,176.5 207.5,183.4 207.5,197.3 195.5,204.2 		"/>
		<path class="st2" d="M195.5,176.8l11.7,6.8v13.5l-11.7,6.8l-11.7-6.8v-13.5L195.5,176.8 M195.5,176.2l-12.2,7.1v14.1l12.2,7.1
			l12.2-7.1v-14.1L195.5,176.2L195.5,176.2z"/>
	</g>
	<g class="st0">
		<polygon class="st10" points="195.8,176.1 195.8,162.3 207.7,155.3 219.7,162.3 219.7,176.1 207.7,183 		"/>
		<path class="st2" d="M207.7,155.6l11.7,6.8v13.5l-11.7,6.8l-11.7-6.8v-13.5L207.7,155.6 M207.7,155l-12.2,7.1v14.1l12.2,7.1
			l12.2-7.1v-14.1L207.7,155L207.7,155z"/>
	</g>
	<g class="st0">
		<polygon class="st10" points="183.5,154.9 183.5,141.1 195.5,134.1 207.5,141.1 207.5,154.9 195.5,161.8 		"/>
		<path class="st2" d="M195.5,134.4l11.7,6.8v13.5l-11.7,6.8l-11.7-6.8v-13.5L195.5,134.4 M195.5,133.9l-12.2,7.1V155l12.2,7.1
			l12.2-7.1v-14.1L195.5,133.9L195.5,133.9z"/>
	</g>
	<g class="st0">
		<polygon class="st10" points="171.3,218.5 171.3,204.6 183.3,197.7 195.3,204.6 195.3,218.5 183.3,225.4 		"/>
		<path class="st2" d="M183.3,198l11.7,6.8v13.5l-11.7,6.8l-11.7-6.8v-13.5L183.3,198 M183.3,197.4l-12.2,7.1v14.1l12.2,7.1
			l12.2-7.1v-14.1L183.3,197.4L183.3,197.4z"/>
	</g>
	<g class="st0">
		<polygon class="st10" points="159.1,197.3 159.1,183.4 171.1,176.5 183.1,183.4 183.1,197.3 171.1,204.2 		"/>
		<path class="st2" d="M171.1,176.8l11.7,6.8v13.5l-11.7,6.8l-11.7-6.8v-13.5L171.1,176.8 M171.1,176.2l-12.2,7.1v14.1l12.2,7.1
			l12.2-7.1v-14.1L171.1,176.2L171.1,176.2z"/>
	</g>
	<g class="st0">
		<polygon class="st10" points="171.3,176.1 171.3,162.3 183.3,155.3 195.3,162.3 195.3,176.1 183.3,183 		"/>
		<path class="st2" d="M183.3,155.6l11.7,6.8v13.5l-11.7,6.8l-11.7-6.8v-13.5L183.3,155.6 M183.3,155l-12.2,7.1v14.1l12.2,7.1
			l12.2-7.1v-14.1L183.3,155L183.3,155z"/>
	</g>
	<g class="st0">
		<polygon class="st10" points="159.1,154.9 159.1,141.1 171.1,134.1 183.1,141.1 183.1,154.9 171.1,161.8 		"/>
		<path class="st2" d="M171.1,134.4l11.7,6.8v13.5l-11.7,6.8l-11.7-6.8v-13.5L171.1,134.4 M171.1,133.9l-12.2,7.1V155l12.2,7.1
			l12.2-7.1v-14.1L171.1,133.9L171.1,133.9z"/>
	</g>
	<g class="st0">
		<polygon class="st10" points="171.3,133.7 171.3,119.9 183.3,113 195.3,119.9 195.3,133.7 183.3,140.6 		"/>
		<path class="st2" d="M183.3,113.3L195,120v13.5l-11.7,6.8l-11.7-6.8V120L183.3,113.3 M183.3,112.7l-12.2,7.1v14.1l12.2,7.1
			l12.2-7.1v-14.1L183.3,112.7L183.3,112.7z"/>
	</g>
	<g class="st0">
		<polygon class="st10" points="159.1,112.5 159.1,98.7 171.1,91.8 183.1,98.7 183.1,112.5 171.1,119.4 		"/>
		<path class="st2" d="M171.1,92.1l11.7,6.8v13.5l-11.7,6.8l-11.7-6.8V98.8L171.1,92.1 M171.1,91.5l-12.2,7.1v14.1l12.2,7.1
			l12.2-7.1V98.5L171.1,91.5L171.1,91.5z"/>
	</g>
	<g class="st0">
		<polygon class="st10" points="134.7,197.3 134.7,183.4 146.7,176.5 158.6,183.4 158.6,197.3 146.7,204.2 		"/>
		<path class="st2" d="M146.7,176.8l11.7,6.8v13.5l-11.7,6.8l-11.7-6.8v-13.5L146.7,176.8 M146.7,176.2l-12.2,7.1v14.1l12.2,7.1
			l12.2-7.1v-14.1L146.7,176.2L146.7,176.2z"/>
	</g>
	<g class="st0">
		<polygon class="st10" points="146.9,176.1 146.9,162.3 158.9,155.3 170.9,162.3 170.9,176.1 158.9,183 		"/>
		<path class="st2" d="M158.9,155.6l11.7,6.8v13.5l-11.7,6.8l-11.7-6.8v-13.5L158.9,155.6 M158.9,155l-12.2,7.1v14.1l12.2,7.1
			l12.2-7.1v-14.1L158.9,155L158.9,155z"/>
	</g>
	<g class="st0">
		<polygon class="st10" points="134.7,154.9 134.7,141.1 146.7,134.1 158.6,141.1 158.6,154.9 146.7,161.8 		"/>
		<path class="st2" d="M146.7,134.4l11.7,6.8v13.5l-11.7,6.8l-11.7-6.8v-13.5L146.7,134.4 M146.7,133.9l-12.2,7.1V155l12.2,7.1
			l12.2-7.1v-14.1L146.7,133.9L146.7,133.9z"/>
	</g>
	<g class="st0">
		<polygon class="st10" points="146.9,133.7 146.9,119.9 158.9,113 170.9,119.9 170.9,133.7 158.9,140.6 		"/>
		<path class="st2" d="M158.9,113.3l11.7,6.8v13.5l-11.7,6.8l-11.7-6.8V120L158.9,113.3 M158.9,112.7l-12.2,7.1v14.1l12.2,7.1
			l12.2-7.1v-14.1L158.9,112.7L158.9,112.7z"/>
	</g>
	<g class="st0">
		<polygon class="st10" points="134.7,112.5 134.7,98.7 146.7,91.8 158.6,98.7 158.6,112.5 146.7,119.4 		"/>
		<path class="st2" d="M146.7,92.1l11.7,6.8v13.5l-11.7,6.8l-11.7-6.8V98.8L146.7,92.1 M146.7,91.5l-12.2,7.1v14.1l12.2,7.1
			l12.2-7.1V98.5L146.7,91.5L146.7,91.5z"/>
	</g>
	<g class="st0">
		<polygon class="st10" points="146.9,91.3 146.9,77.5 158.9,70.6 170.9,77.5 170.9,91.3 158.9,98.3 		"/>
		<path class="st2" d="M158.9,70.9l11.7,6.8v13.5L158.9,98l-11.7-6.8V77.7L158.9,70.9 M158.9,70.3l-12.2,7.1v14.1l12.2,7.1l12.2-7.1
			V77.4L158.9,70.3L158.9,70.3z"/>
	</g>
	<g class="st0">
		<polygon class="st10" points="134.7,70.2 134.7,56.3 146.7,49.4 158.6,56.3 158.6,70.2 146.7,77.1 		"/>
		<path class="st2" d="M146.7,49.7l11.7,6.8V70l-11.7,6.8L134.9,70V56.5L146.7,49.7 M146.7,49.1l-12.2,7.1v14.1l12.2,7.1l12.2-7.1
			V56.2L146.7,49.1L146.7,49.1z"/>
	</g>
	<g class="st0">
		<polygon class="st10" points="110.2,197.3 110.2,183.4 122.2,176.5 134.2,183.4 134.2,197.3 122.2,204.2 		"/>
		<path class="st2" d="M122.2,176.8l11.7,6.8v13.5l-11.7,6.8l-11.7-6.8v-13.5L122.2,176.8 M122.2,176.2l-12.2,7.1v14.1l12.2,7.1
			l12.2-7.1v-14.1L122.2,176.2L122.2,176.2z"/>
	</g>
	<g class="st0">
		<polygon class="st10" points="122.5,176.1 122.5,162.3 134.4,155.3 146.4,162.3 146.4,176.1 134.4,183 		"/>
		<path class="st2" d="M134.4,155.6l11.7,6.8v13.5l-11.7,6.8l-11.7-6.8v-13.5L134.4,155.6 M134.4,155l-12.2,7.1v14.1l12.2,7.1
			l12.2-7.1v-14.1L134.4,155L134.4,155z"/>
	</g>
	<g class="st0">
		<polygon class="st10" points="110.2,154.9 110.2,141.1 122.2,134.1 134.2,141.1 134.2,154.9 122.2,161.8 		"/>
		<path class="st2" d="M122.2,134.4l11.7,6.8v13.5l-11.7,6.8l-11.7-6.8v-13.5L122.2,134.4 M122.2,133.9l-12.2,7.1V155l12.2,7.1
			l12.2-7.1v-14.1L122.2,133.9L122.2,133.9z"/>
	</g>
	<g class="st0">
		<polygon class="st10" points="122.5,133.7 122.5,119.9 134.4,113 146.4,119.9 146.4,133.7 134.4,140.6 		"/>
		<path class="st2" d="M134.4,113.3l11.7,6.8v13.5l-11.7,6.8l-11.7-6.8V120L134.4,113.3 M134.4,112.7l-12.2,7.1v14.1l12.2,7.1
			l12.2-7.1v-14.1L134.4,112.7L134.4,112.7z"/>
	</g>
	<g class="st0">
		<polygon class="st10" points="110.2,112.5 110.2,98.7 122.2,91.8 134.2,98.7 134.2,112.5 122.2,119.4 		"/>
		<path class="st2" d="M122.2,92.1l11.7,6.8v13.5l-11.7,6.8l-11.7-6.8V98.8L122.2,92.1 M122.2,91.5L110,98.5v14.1l12.2,7.1l12.2-7.1
			V98.5L122.2,91.5L122.2,91.5z"/>
	</g>
	<g class="st0">
		<polygon class="st10" points="122.5,91.3 122.5,77.5 134.4,70.6 146.4,77.5 146.4,91.3 134.4,98.3 		"/>
		<path class="st2" d="M134.4,70.9l11.7,6.8v13.5L134.4,98l-11.7-6.8V77.7L134.4,70.9 M134.4,70.3l-12.2,7.1v14.1l12.2,7.1l12.2-7.1
			V77.4L134.4,70.3L134.4,70.3z"/>
	</g>
	<g class="st0">
		<polygon class="st10" points="110.2,70.2 110.2,56.3 122.2,49.4 134.2,56.3 134.2,70.2 122.2,77.1 		"/>
		<path class="st2" d="M122.2,49.7l11.7,6.8V70l-11.7,6.8L110.5,70V56.5L122.2,49.7 M122.2,49.1L110,56.2v14.1l12.2,7.1l12.2-7.1
			V56.2L122.2,49.1L122.2,49.1z"/>
	</g>
</g>
<g id="BC">
	<g class="st0">
		<polygon class="st11" points="98,345.6 98,331.7 110,324.8 122,331.7 122,345.6 110,352.5 		"/>
		<path class="st2" d="M110,325.1l11.7,6.8v13.5l-11.7,6.8l-11.7-6.8v-13.5L110,325.1 M110,324.5l-12.2,7.1v14.1l12.2,7.1l12.2-7.1
			v-14.1L110,324.5L110,324.5z"/>
	</g>
	<g class="st0">
		<polygon class="st11" points="85.8,324.4 85.8,310.6 97.8,303.6 109.8,310.6 109.8,324.4 97.8,331.3 		"/>
		<path class="st2" d="M97.8,303.9l11.7,6.8v13.5L97.8,331l-11.7-6.8v-13.5L97.8,303.9 M97.8,303.4l-12.2,7.1v14.1l12.2,7.1
			l12.2-7.1v-14.1L97.8,303.4L97.8,303.4z"/>
	</g>
	<g class="st0">
		<polygon class="st11" points="98,303.2 98,289.4 110,282.5 122,289.4 122,303.2 110,310.1 		"/>
		<path class="st2" d="M110,282.7l11.7,6.8v13.5l-11.7,6.8l-11.7-6.8v-13.5L110,282.7 M110,282.2l-12.2,7.1v14.1l12.2,7.1l12.2-7.1
			v-14.1L110,282.2L110,282.2z"/>
	</g>
	<g class="st0">
		<polygon class="st11" points="85.8,282 85.8,268.2 97.8,261.3 109.8,268.2 109.8,282 97.8,288.9 		"/>
		<path class="st2" d="M97.8,261.6l11.7,6.8v13.5l-11.7,6.8l-11.7-6.8v-13.5L97.8,261.6 M97.8,261L85.6,268v14.1l12.2,7.1l12.2-7.1
			V268L97.8,261L97.8,261z"/>
	</g>
	<g class="st0">
		<polygon class="st11" points="98,260.8 98,247 110,240.1 122,247 122,260.8 110,267.8 		"/>
		<path class="st2" d="M110,240.4l11.7,6.8v13.5l-11.7,6.8l-11.7-6.8v-13.5L110,240.4 M110,239.8l-12.2,7.1V261L110,268l12.2-7.1
			v-14.1L110,239.8L110,239.8z"/>
	</g>
	<g class="st0">
		<polygon class="st11" points="85.8,239.6 85.8,225.8 97.8,218.9 109.8,225.8 109.8,239.6 97.8,246.6 		"/>
		<path class="st2" d="M97.8,219.2l11.7,6.8v13.5l-11.7,6.8l-11.7-6.8V226L97.8,219.2 M97.8,218.6l-12.2,7.1v14.1l12.2,7.1l12.2-7.1
			v-14.1L97.8,218.6L97.8,218.6z"/>
	</g>
	<g class="st0">
		<polygon class="st11" points="98,218.5 98,204.6 110,197.7 122,204.6 122,218.5 110,225.4 		"/>
		<path class="st2" d="M110,198l11.7,6.8v13.5l-11.7,6.8l-11.7-6.8v-13.5L110,198 M110,197.4l-12.2,7.1v14.1l12.2,7.1l12.2-7.1
			v-14.1L110,197.4L110,197.4z"/>
	</g>
	<g class="st0">
		<polygon class="st11" points="85.8,197.3 85.8,183.4 97.8,176.5 109.8,183.4 109.8,197.3 97.8,204.2 		"/>
		<path class="st2" d="M97.8,176.8l11.7,6.8v13.5l-11.7,6.8l-11.7-6.8v-13.5L97.8,176.8 M97.8,176.2l-12.2,7.1v14.1l12.2,7.1
			l12.2-7.1v-14.1L97.8,176.2L97.8,176.2z"/>
	</g>
	<g class="st0">
		<polygon class="st11" points="61.4,324.4 61.4,310.6 73.4,303.6 85.3,310.6 85.3,324.4 73.4,331.3 		"/>
		<path class="st2" d="M73.4,303.9l11.7,6.8v13.5L73.4,331l-11.7-6.8v-13.5L73.4,303.9 M73.4,303.4l-12.2,7.1v14.1l12.2,7.1
			l12.2-7.1v-14.1L73.4,303.4L73.4,303.4z"/>
	</g>
	<g class="st0">
		<polygon class="st11" points="73.6,303.2 73.6,289.4 85.6,282.5 97.6,289.4 97.6,303.2 85.6,310.1 		"/>
		<path class="st2" d="M85.6,282.7l11.7,6.8v13.5l-11.7,6.8l-11.7-6.8v-13.5L85.6,282.7 M85.6,282.2l-12.2,7.1v14.1l12.2,7.1
			l12.2-7.1v-14.1L85.6,282.2L85.6,282.2z"/>
	</g>
	<g class="st0">
		<polygon class="st11" points="61.4,282 61.4,268.2 73.4,261.3 85.3,268.2 85.3,282 73.4,288.9 		"/>
		<path class="st2" d="M73.4,261.6l11.7,6.8v13.5l-11.7,6.8l-11.7-6.8v-13.5L73.4,261.6 M73.4,261L61.1,268v14.1l12.2,7.1l12.2-7.1
			V268L73.4,261L73.4,261z"/>
	</g>
	<g class="st0">
		<polygon class="st11" points="73.6,260.8 73.6,247 85.6,240.1 97.6,247 97.6,260.8 85.6,267.8 		"/>
		<path class="st2" d="M85.6,240.4l11.7,6.8v13.5l-11.7,6.8l-11.7-6.8v-13.5L85.6,240.4 M85.6,239.8l-12.2,7.1V261l12.2,7.1
			l12.2-7.1v-14.1L85.6,239.8L85.6,239.8z"/>
	</g>
	<g class="st0">
		<polygon class="st11" points="61.4,239.6 61.4,225.8 73.4,218.9 85.3,225.8 85.3,239.6 73.4,246.6 		"/>
		<path class="st2" d="M73.4,219.2l11.7,6.8v13.5l-11.7,6.8l-11.7-6.8V226L73.4,219.2 M73.4,218.6l-12.2,7.1v14.1l12.2,7.1l12.2-7.1
			v-14.1L73.4,218.6L73.4,218.6z"/>
	</g>
	<g class="st0">
		<polygon class="st11" points="73.6,218.5 73.6,204.6 85.6,197.7 97.6,204.6 97.6,218.5 85.6,225.4 		"/>
		<path class="st2" d="M85.6,198l11.7,6.8v13.5l-11.7,6.8l-11.7-6.8v-13.5L85.6,198 M85.6,197.4l-12.2,7.1v14.1l12.2,7.1l12.2-7.1
			v-14.1L85.6,197.4L85.6,197.4z"/>
	</g>
	<g class="st0">
		<polygon class="st11" points="61.4,197.3 61.4,183.4 73.4,176.5 85.3,183.4 85.3,197.3 73.4,204.2 		"/>
		<path class="st2" d="M73.4,176.8l11.7,6.8v13.5l-11.7,6.8l-11.7-6.8v-13.5L73.4,176.8 M73.4,176.2l-12.2,7.1v14.1l12.2,7.1
			l12.2-7.1v-14.1L73.4,176.2L73.4,176.2z"/>
	</g>
	<g class="st0">
		<polygon class="st11" points="49.2,303.2 49.2,289.4 61.1,282.5 73.1,289.4 73.1,303.2 61.1,310.1 		"/>
		<path class="st2" d="M61.1,282.7l11.7,6.8v13.5l-11.7,6.8l-11.7-6.8v-13.5L61.1,282.7 M61.1,282.2l-12.2,7.1v14.1l12.2,7.1
			l12.2-7.1v-14.1L61.1,282.2L61.1,282.2z"/>
	</g>
	<g class="st0">
		<polygon class="st11" points="36.9,282 36.9,268.2 48.9,261.3 60.9,268.2 60.9,282 48.9,288.9 		"/>
		<path class="st2" d="M48.9,261.6l11.7,6.8v13.5l-11.7,6.8l-11.7-6.8v-13.5L48.9,261.6 M48.9,261L36.7,268v14.1l12.2,7.1l12.2-7.1
			V268L48.9,261L48.9,261z"/>
	</g>
	<g class="st0">
		<polygon class="st11" points="49.2,260.8 49.2,247 61.1,240.1 73.1,247 73.1,260.8 61.1,267.8 		"/>
		<path class="st2" d="M61.1,240.4l11.7,6.8v13.5l-11.7,6.8l-11.7-6.8v-13.5L61.1,240.4 M61.1,239.8l-12.2,7.1V261l12.2,7.1
			l12.2-7.1v-14.1L61.1,239.8L61.1,239.8z"/>
	</g>
	<g class="st0">
		<polygon class="st11" points="36.9,239.6 36.9,225.8 48.9,218.9 60.9,225.8 60.9,239.6 48.9,246.6 		"/>
		<path class="st2" d="M48.9,219.2l11.7,6.8v13.5l-11.7,6.8l-11.7-6.8V226L48.9,219.2 M48.9,218.6l-12.2,7.1v14.1l12.2,7.1l12.2-7.1
			v-14.1L48.9,218.6L48.9,218.6z"/>
	</g>
	<g class="st0">
		<polygon class="st11" points="49.2,218.5 49.2,204.6 61.1,197.7 73.1,204.6 73.1,218.5 61.1,225.4 		"/>
		<path class="st2" d="M61.1,198l11.7,6.8v13.5l-11.7,6.8l-11.7-6.8v-13.5L61.1,198 M61.1,197.4l-12.2,7.1v14.1l12.2,7.1l12.2-7.1
			v-14.1L61.1,197.4L61.1,197.4z"/>
	</g>
	<g class="st0">
		<polygon class="st11" points="36.9,197.3 36.9,183.4 48.9,176.5 60.9,183.4 60.9,197.3 48.9,204.2 		"/>
		<path class="st2" d="M48.9,176.8l11.7,6.8v13.5l-11.7,6.8l-11.7-6.8v-13.5L48.9,176.8 M48.9,176.2l-12.2,7.1v14.1l12.2,7.1
			l12.2-7.1v-14.1L48.9,176.2L48.9,176.2z"/>
	</g>
	<g class="st0">
		<polygon class="st11" points="49.2,176.1 49.2,162.3 61.1,155.3 73.1,162.3 73.1,176.1 61.1,183 		"/>
		<path class="st2" d="M61.1,155.6l11.7,6.8v13.5l-11.7,6.8l-11.7-6.8v-13.5L61.1,155.6 M61.1,155l-12.2,7.1v14.1l12.2,7.1l12.2-7.1
			v-14.1L61.1,155L61.1,155z"/>
	</g>
	<g class="st0">
		<polygon class="st11" points="24.7,260.8 24.7,247 36.7,240.1 48.7,247 48.7,260.8 36.7,267.8 		"/>
		<path class="st2" d="M36.7,240.4l11.7,6.8v13.5l-11.7,6.8L25,260.7v-13.5L36.7,240.4 M36.7,239.8l-12.2,7.1V261l12.2,7.1l12.2-7.1
			v-14.1L36.7,239.8L36.7,239.8z"/>
	</g>
</g>
<g id="YT">
	<g class="st0">
		<polygon class="st12" points="98,176.1 98,162.3 110,155.3 122,162.3 122,176.1 110,183 		"/>
		<path class="st2" d="M110,155.6l11.7,6.8v13.5l-11.7,6.8l-11.7-6.8v-13.5L110,155.6 M110,155l-12.2,7.1v14.1l12.2,7.1l12.2-7.1
			v-14.1L110,155L110,155z"/>
	</g>
	<g class="st0">
		<polygon class="st12" points="85.8,154.9 85.8,141.1 97.8,134.1 109.8,141.1 109.8,154.9 97.8,161.8 		"/>
		<path class="st2" d="M97.8,134.4l11.7,6.8v13.5l-11.7,6.8l-11.7-6.8v-13.5L97.8,134.4 M97.8,133.9l-12.2,7.1V155l12.2,7.1L110,155
			v-14.1L97.8,133.9L97.8,133.9z"/>
	</g>
	<g class="st0">
		<polygon class="st12" points="98,133.7 98,119.9 110,113 122,119.9 122,133.7 110,140.6 		"/>
		<path class="st2" d="M110,113.3l11.7,6.8v13.5l-11.7,6.8l-11.7-6.8V120L110,113.3 M110,112.7l-12.2,7.1v14.1l12.2,7.1l12.2-7.1
			v-14.1L110,112.7L110,112.7z"/>
	</g>
	<g class="st0">
		<polygon class="st12" points="85.8,112.5 85.8,98.7 97.8,91.8 109.8,98.7 109.8,112.5 97.8,119.4 		"/>
		<path class="st2" d="M97.8,92.1l11.7,6.8v13.5l-11.7,6.8l-11.7-6.8V98.8L97.8,92.1 M97.8,91.5l-12.2,7.1v14.1l12.2,7.1l12.2-7.1
			V98.5L97.8,91.5L97.8,91.5z"/>
	</g>
	<g class="st0">
		<polygon class="st12" points="98,91.3 98,77.5 110,70.6 122,77.5 122,91.3 110,98.3 		"/>
		<path class="st2" d="M110,70.9l11.7,6.8v13.5L110,98l-11.7-6.8V77.7L110,70.9 M110,70.3l-12.2,7.1v14.1l12.2,7.1l12.2-7.1V77.4
			L110,70.3L110,70.3z"/>
	</g>
	<g class="st0">
		<polygon class="st12" points="85.8,70.2 85.8,56.3 97.8,49.4 109.8,56.3 109.8,70.2 97.8,77.1 		"/>
		<path class="st2" d="M97.8,49.7l11.7,6.8V70l-11.7,6.8L86.1,70V56.5L97.8,49.7 M97.8,49.1l-12.2,7.1v14.1l12.2,7.1l12.2-7.1V56.2
			L97.8,49.1L97.8,49.1z"/>
	</g>
	<g class="st0">
		<polygon class="st12" points="73.6,176.1 73.6,162.3 85.6,155.3 97.6,162.3 97.6,176.1 85.6,183 		"/>
		<path class="st2" d="M85.6,155.6l11.7,6.8v13.5l-11.7,6.8l-11.7-6.8v-13.5L85.6,155.6 M85.6,155l-12.2,7.1v14.1l12.2,7.1l12.2-7.1
			v-14.1L85.6,155L85.6,155z"/>
	</g>
	<g class="st0">
		<polygon class="st12" points="61.4,154.9 61.4,141.1 73.4,134.1 85.3,141.1 85.3,154.9 73.4,161.8 		"/>
		<path class="st2" d="M73.4,134.4l11.7,6.8v13.5l-11.7,6.8l-11.7-6.8v-13.5L73.4,134.4 M73.4,133.9l-12.2,7.1V155l12.2,7.1
			l12.2-7.1v-14.1L73.4,133.9L73.4,133.9z"/>
	</g>
	<g class="st0">
		<polygon class="st12" points="73.6,133.7 73.6,119.9 85.6,113 97.6,119.9 97.6,133.7 85.6,140.6 		"/>
		<path class="st2" d="M85.6,113.3l11.7,6.8v13.5l-11.7,6.8l-11.7-6.8V120L85.6,113.3 M85.6,112.7l-12.2,7.1v14.1l12.2,7.1l12.2-7.1
			v-14.1L85.6,112.7L85.6,112.7z"/>
	</g>
	<g class="st0">
		<polygon class="st12" points="61.4,112.5 61.4,98.7 73.4,91.8 85.3,98.7 85.3,112.5 73.4,119.4 		"/>
		<path class="st2" d="M73.4,92.1l11.7,6.8v13.5l-11.7,6.8l-11.7-6.8V98.8L73.4,92.1 M73.4,91.5l-12.2,7.1v14.1l12.2,7.1l12.2-7.1
			V98.5L73.4,91.5L73.4,91.5z"/>
	</g>
	<g class="st0">
		<polygon class="st12" points="73.6,91.3 73.6,77.5 85.6,70.6 97.6,77.5 97.6,91.3 85.6,98.3 		"/>
		<path class="st2" d="M85.6,70.9l11.7,6.8v13.5L85.6,98l-11.7-6.8V77.7L85.6,70.9 M85.6,70.3l-12.2,7.1v14.1l12.2,7.1l12.2-7.1
			V77.4L85.6,70.3L85.6,70.3z"/>
	</g>
	<g class="st0">
		<polygon class="st12" points="36.9,154.9 36.9,141.1 48.9,134.1 60.9,141.1 60.9,154.9 48.9,161.8 		"/>
		<path class="st2" d="M48.9,134.4l11.7,6.8v13.5l-11.7,6.8l-11.7-6.8v-13.5L48.9,134.4 M48.9,133.9l-12.2,7.1V155l12.2,7.1
			l12.2-7.1v-14.1L48.9,133.9L48.9,133.9z"/>
	</g>
	<g class="st0">
		<polygon class="st12" points="49.2,133.7 49.2,119.9 61.1,113 73.1,119.9 73.1,133.7 61.1,140.6 		"/>
		<path class="st2" d="M61.1,113.3l11.7,6.8v13.5l-11.7,6.8l-11.7-6.8V120L61.1,113.3 M61.1,112.7l-12.2,7.1v14.1l12.2,7.1l12.2-7.1
			v-14.1L61.1,112.7L61.1,112.7z"/>
	</g>
	<g class="st0">
		<polygon class="st12" points="36.9,112.5 36.9,98.7 48.9,91.8 60.9,98.7 60.9,112.5 48.9,119.4 		"/>
		<path class="st2" d="M48.9,92.1l11.7,6.8v13.5l-11.7,6.8l-11.7-6.8V98.8L48.9,92.1 M48.9,91.5l-12.2,7.1v14.1l12.2,7.1l12.2-7.1
			V98.5L48.9,91.5L48.9,91.5z"/>
	</g>
	<g class="st0">
		<polygon class="st12" points="49.2,91.3 49.2,77.5 61.1,70.6 73.1,77.5 73.1,91.3 61.1,98.3 		"/>
		<path class="st2" d="M61.1,70.9l11.7,6.8v13.5L61.1,98l-11.7-6.8V77.7L61.1,70.9 M61.1,70.3l-12.2,7.1v14.1l12.2,7.1l12.2-7.1
			V77.4L61.1,70.3L61.1,70.3z"/>
	</g>
	<g class="st0">
		<polygon class="st12" points="24.7,133.7 24.7,119.9 36.7,113 48.7,119.9 48.7,133.7 36.7,140.6 		"/>
		<path class="st2" d="M36.7,113.3l11.7,6.8v13.5l-11.7,6.8L25,133.6V120L36.7,113.3 M36.7,112.7l-12.2,7.1v14.1l12.2,7.1l12.2-7.1
			v-14.1L36.7,112.7L36.7,112.7z"/>
	</g>
</g>
</svg>
